<svg width="32" height="28" viewBox="0 0 32 28" fill="none" xmlns="http://www.w3.org/2000/svg">
<path d="M3.67813 15.8644L15.0261 26.5246C15.417 26.8918 15.6124 27.0754 15.8428 27.1206C15.9466 27.141 16.0534 27.141 16.1572 27.1206C16.3876 27.0754 16.583 26.8918 16.9739 26.5246L28.3219 15.8644C31.5147 12.8651 31.9024 7.9294 29.2171 4.46831L28.7122 3.81752C25.4997 -0.32293 19.0516 0.371456 16.7943 5.10092C16.4755 5.76899 15.5245 5.76899 15.2057 5.10092C12.9484 0.371456 6.50025 -0.322924 3.28783 3.81753L2.7829 4.46832C0.097575 7.92941 0.4853 12.8651 3.67813 15.8644Z" stroke="#20A92D"/>
</svg>
