<svg width="30" height="20" viewBox="0 0 30 20" fill="none" xmlns="http://www.w3.org/2000/svg">
<path fill-rule="evenodd" clip-rule="evenodd" d="M4.66413 5.45029L0 10.1094L4.66425 14.7734C9.51039 19.6192 9.40883 19.5266 9.7361 19.401C9.88206 19.345 10.0177 19.037 9.97459 18.8593C9.95014 18.7585 8.52066 17.2866 5.88027 14.6436L1.82348 10.5827H14.987H28.1506L24.0938 14.6436C21.4534 17.2866 20.0239 18.7585 19.9995 18.8593C19.9564 19.037 20.092 19.345 20.238 19.401C20.5658 19.5268 20.4622 19.6213 25.323 14.7602L30 10.0829L25.3499 5.43639C21.1712 1.26085 20.6812 0.789795 20.5163 0.789795C20.4155 0.789795 20.2902 0.806215 20.238 0.826211C20.0918 0.88233 19.9564 1.19019 19.9998 1.36787C20.0244 1.46844 21.461 2.94782 24.0937 5.58364L28.1498 9.64448H14.987H1.82424L5.88039 5.58364C8.5131 2.94782 9.94973 1.46844 9.9743 1.36787C10.0177 1.19019 9.88229 0.88233 9.7361 0.826211C9.41 0.701073 9.50664 0.612937 4.66413 5.45029Z" fill="#FF0053"/>
</svg>
