<svg width="18" height="31" viewBox="0 0 18 31" fill="none" xmlns="http://www.w3.org/2000/svg">
<path d="M3.79637 18.6138H8.49983V27.8437L8.49983 27.8758C8.49982 28.2938 8.4998 28.6495 8.52723 28.9046C8.54104 29.0329 8.56587 29.1836 8.62613 29.3184C8.69141 29.4645 8.82979 29.6542 9.08851 29.7112C9.34724 29.7682 9.55251 29.6542 9.67312 29.549C9.78445 29.452 9.87028 29.3257 9.93675 29.215C10.0688 28.9951 10.2182 28.6723 10.3938 28.2929L10.4073 28.2638L16.472 15.1641L16.4891 15.1272C16.7704 14.5196 17.0051 14.0126 17.1267 13.5997C17.2531 13.1703 17.2957 12.7185 17.0322 12.3061C16.7687 11.8938 16.3409 11.7426 15.898 11.6769C15.4722 11.6138 14.9135 11.6138 14.244 11.6138L14.2033 11.6138H9.49983V2.38395V2.35189C9.49985 1.93387 9.49987 1.57813 9.47244 1.32309C9.45863 1.19471 9.4338 1.04405 9.37354 0.90922C9.30826 0.763149 9.16988 0.573434 8.91116 0.516449C8.65243 0.459464 8.44716 0.573491 8.32655 0.678619C8.21522 0.775659 8.12939 0.901944 8.06292 1.01265C7.93089 1.23255 7.78145 1.55537 7.60586 1.93469L7.59237 1.96383L1.5277 15.0635L1.5106 15.1005C1.2293 15.708 0.994545 16.215 0.872974 16.6279C0.746532 17.0574 0.703972 17.5092 0.967458 17.9215C1.23094 18.3338 1.65882 18.485 2.10165 18.5507C2.52743 18.6139 3.08615 18.6138 3.75566 18.6138H3.79637Z" stroke="#007AFF"/>
</svg>
