<svg width="35" height="14" viewBox="0 0 35 14" fill="none" xmlns="http://www.w3.org/2000/svg">
<path d="M16.384 6.55298V10.4819H15.1289V0.779216H18.4577C18.855 0.770974 19.25 0.840956 19.62 0.985125C19.99 1.12929 20.3275 1.3448 20.6132 1.61919C20.9017 1.87693 21.1313 2.19302 21.2866 2.54621C21.4419 2.8994 21.5193 3.28152 21.5136 3.66687C21.5218 4.05429 21.4456 4.4389 21.2902 4.79434C21.1348 5.14979 20.9038 5.46766 20.6132 5.72617C20.0311 6.27738 19.3126 6.55272 18.4577 6.55221H16.384V6.55298ZM16.384 1.97376V5.36076H18.4888C18.7196 5.36755 18.9492 5.32644 19.1631 5.24006C19.3769 5.15368 19.5702 5.02392 19.7307 4.8591C19.8903 4.70499 20.0172 4.52066 20.1038 4.31701C20.1905 4.11336 20.2351 3.89453 20.2351 3.67345C20.2351 3.45238 20.1905 3.23354 20.1038 3.0299C20.0172 2.82625 19.8903 2.64192 19.7307 2.48781C19.5722 2.31951 19.3796 2.18658 19.1655 2.09782C18.9514 2.00907 18.7207 1.96651 18.4888 1.97299H16.384V1.97376Z" fill="#5F6368"/>
<path d="M24.4057 3.62671C25.3333 3.62671 26.0656 3.8729 26.6025 4.36527C27.1393 4.85764 27.4075 5.53272 27.407 6.3905V10.482H26.2065V9.56073H26.1519C25.6322 10.3194 24.941 10.6988 24.0782 10.6988C23.3418 10.6988 22.7257 10.482 22.2299 10.0485C21.992 9.84947 21.8017 9.60027 21.6731 9.31902C21.5444 9.03777 21.4806 8.73156 21.4862 8.42269C21.4862 7.73575 21.7476 7.18944 22.2704 6.78378C22.7933 6.37811 23.4912 6.17476 24.3643 6.17373C25.1096 6.17373 25.7234 6.30921 26.2057 6.58017V6.29527C26.2071 6.08471 26.1613 5.87648 26.0716 5.68567C25.982 5.49485 25.8507 5.32625 25.6873 5.19208C25.3554 4.89471 24.9228 4.73245 24.4758 4.73764C23.7747 4.73764 23.2199 5.03131 22.8114 5.61865L21.706 4.92732C22.3141 4.06024 23.214 3.62671 24.4057 3.62671ZM22.7818 8.44979C22.781 8.60842 22.8183 8.76495 22.8907 8.90635C22.9631 9.04774 23.0685 9.16991 23.1981 9.26267C23.4757 9.47951 23.8202 9.59438 24.1733 9.58782C24.703 9.58694 25.2107 9.37759 25.5851 9.00565C26.0009 8.61701 26.2088 8.16102 26.2088 7.63769C25.8175 7.32802 25.2718 7.17318 24.5717 7.17318C24.0619 7.17318 23.6367 7.29524 23.2963 7.53937C22.9525 7.7871 22.7818 8.08825 22.7818 8.44979Z" fill="#5F6368"/>
<path d="M34.2984 3.84351L30.1075 13.4084H28.8119L30.3671 10.0616L27.6113 3.84351H28.9756L30.9674 8.61239H30.9946L32.9319 3.84351H34.2984Z" fill="#5F6368"/>
<path d="M11.312 5.70614C11.3125 5.32629 11.2802 4.94711 11.2154 4.57275H5.92212V6.71953H8.95385C8.89181 7.0624 8.7605 7.38925 8.56784 7.68036C8.37518 7.97148 8.12515 8.22084 7.83283 8.41342V9.80692H9.6422C10.7016 8.83689 11.312 7.40235 11.312 5.70614Z" fill="#4285F4"/>
<path d="M5.92217 11.1535C7.43687 11.1535 8.71224 10.6595 9.64226 9.80796L7.83289 8.41445C7.32929 8.75353 6.68069 8.94708 5.92217 8.94708C4.45815 8.94708 3.21552 7.96698 2.77117 6.64624H0.907227V8.08233C1.37439 9.00551 2.09075 9.78158 2.9763 10.3239C3.86186 10.8662 4.88177 11.1534 5.92217 11.1535Z" fill="#34A853"/>
<path d="M2.77118 6.64612C2.53627 5.95404 2.53627 5.20458 2.77118 4.5125V3.07642H0.907241C0.514243 3.85303 0.30957 4.71015 0.30957 5.57931C0.30957 6.44847 0.514243 7.30559 0.907241 8.08221L2.77118 6.64612Z" fill="#FBBC04"/>
<path d="M5.92217 2.21164C6.72262 2.19865 7.49607 2.49899 8.07533 3.04774L9.67734 1.45682C8.6615 0.509292 7.31574 -0.0109154 5.92217 0.00524852C4.88177 0.00529561 3.86186 0.292508 2.9763 0.834821C2.09075 1.37713 1.37439 2.1532 0.907227 3.07638L2.77117 4.51247C3.21552 3.19174 4.45815 2.21164 5.92217 2.21164Z" fill="#EA4335"/>
</svg>
