<svg width="35" height="15" viewBox="0 0 35 15" fill="none" xmlns="http://www.w3.org/2000/svg">
<path d="M28.473 14.6755C30.0395 14.6755 30.7768 14.0777 31.4208 12.2659L34.2422 4.35246H32.6087L30.7167 10.4748H30.6835L28.7916 4.36075H27.1117L29.8336 11.8928L29.6878 12.3509C29.5848 13.0067 28.9961 13.4745 28.3334 13.4261C28.207 13.4261 27.9616 13.413 27.8621 13.3999V14.6437C28.0646 14.6713 28.2691 14.6844 28.473 14.6838V14.6755ZM23.0292 10.7125C22.1724 10.7125 21.6285 10.2979 21.6285 9.67047C21.6285 9.02023 22.153 8.64156 23.1557 8.58144L24.9412 8.46881V9.0534C24.9019 10.0167 24.0885 10.7664 23.1253 10.727C23.0928 10.7256 23.061 10.7229 23.0292 10.7201V10.7125ZM22.598 11.9404C23.5703 11.9667 24.4796 11.4602 24.9682 10.6192H25.0014V11.863H26.4884V6.71157C26.4884 5.2176 25.2937 4.25503 23.4542 4.25503C21.7481 4.25503 20.4863 5.23073 20.44 6.57198H21.8877C22.0604 5.88996 22.7086 5.44011 23.4079 5.51612C24.3905 5.51612 24.9412 5.97426 24.9412 6.81729V7.38807L22.9373 7.50761C21.0716 7.62025 20.0627 8.38381 20.0627 9.71193C20.0613 11.0587 21.1034 11.948 22.5973 11.948L22.598 11.9404ZM13.9804 2.8654H15.8323C17.2268 2.8654 18.0235 3.60893 18.0235 4.91701C18.0235 6.2251 17.2268 6.97484 15.8261 6.97484H13.9804V2.8654ZM12.3738 1.51102V11.861H13.9804V8.33268H16.2048C18.0166 8.43011 19.5638 7.04049 19.6612 5.22866C19.6668 5.1257 19.6675 5.02343 19.6633 4.92047C19.749 3.12868 18.3663 1.60708 16.5745 1.5207C16.4688 1.51586 16.3637 1.51655 16.258 1.52139L12.3738 1.51102ZM7.04131 3.4424C6.11812 3.38919 5.32829 3.96687 4.89019 3.96687C4.45209 3.96687 3.7749 3.46935 3.0445 3.48317C2.07709 3.50804 1.19536 4.04358 0.727543 4.89076C-0.268203 6.60377 0.468415 9.13978 1.43099 10.5335C1.90226 11.2246 2.46751 11.9812 3.21035 11.9543C3.91379 11.928 4.19296 11.4961 5.0429 11.4961C5.89285 11.4961 6.14507 11.9543 6.88859 11.9404C7.65838 11.9273 8.14347 11.2494 8.61612 10.5584C8.94919 10.0692 9.20832 9.53365 9.38591 8.9691C8.47861 8.57246 7.89056 7.67898 7.88572 6.68876C7.89954 5.81533 8.35699 5.00961 9.10052 4.55147C8.62648 3.87843 7.86568 3.4652 7.04269 3.43618L7.04131 3.4424ZM6.465 2.52819C6.06076 3.03747 5.44231 3.32976 4.79207 3.31802C4.75061 2.68367 4.9662 2.05969 5.38979 1.58565C5.81131 1.09642 6.40558 0.78961 7.04822 0.729492C7.09382 1.38181 6.88445 2.02583 6.46362 2.52612" fill="black"/>
</svg>
