<svg width="18" height="16" viewBox="0 0 18 16" fill="none" xmlns="http://www.w3.org/2000/svg">
<path d="M2.5671 9.30574L8.49352 15.0629C8.69767 15.2612 8.79974 15.3603 8.92009 15.3848C8.97429 15.3958 9.03004 15.3958 9.08424 15.3848C9.20458 15.3603 9.30666 15.2612 9.5108 15.0629L15.4372 9.30574C17.1047 7.68592 17.3072 5.02035 15.9047 3.15116L15.6411 2.79969C13.9634 0.5636 10.5958 0.93861 9.417 3.4928C9.25048 3.8536 8.75384 3.8536 8.58733 3.4928C7.40849 0.93861 4.04095 0.563604 2.36327 2.79969L2.09957 3.15116C0.697168 5.02035 0.899657 7.68592 2.5671 9.30574Z" stroke="#797979"/>
</svg>
