<svg width="35" height="11" viewBox="0 0 35 11" fill="none" xmlns="http://www.w3.org/2000/svg">
<path d="M32.1805 0.638428H30.0438C29.3978 0.638428 28.9009 0.837193 28.6028 1.48318L24.5281 10.7754H27.4102C27.4102 10.7754 27.9071 9.53316 28.0065 9.23502C28.3046 9.23502 31.137 9.23502 31.5345 9.23502C31.6339 9.58286 31.8824 10.7258 31.8824 10.7258H34.4663L32.1805 0.638428ZM28.8015 7.14798C29.05 6.55169 29.8947 4.31558 29.8947 4.31558C29.8947 4.36527 30.1432 3.71929 30.2426 3.37145L30.4413 4.26589C30.4413 4.26589 30.9879 6.70076 31.0873 7.19768H28.8015V7.14798Z" fill="#3362AB"/>
<path d="M24.7268 7.44603C24.7268 9.53307 22.8386 10.9244 19.9068 10.9244C18.6645 10.9244 17.4719 10.676 16.8259 10.3778L17.2235 8.09202L17.5713 8.24109C18.4657 8.63862 19.062 8.7877 20.1552 8.7877C20.9503 8.7877 21.7951 8.48955 21.7951 7.79387C21.7951 7.34665 21.4472 7.0485 20.354 6.55159C19.3105 6.05468 17.9191 5.25962 17.9191 3.81857C17.9191 1.83092 19.8571 0.489258 22.5901 0.489258C23.6336 0.489258 24.5281 0.688023 25.0747 0.936479L24.6771 3.12289L24.4784 2.92413C23.9815 2.72536 23.3355 2.5266 22.3913 2.5266C21.3478 2.57629 20.8509 3.02351 20.8509 3.42104C20.8509 3.86826 21.4472 4.2161 22.3913 4.66332C23.9815 5.40869 24.7268 6.25344 24.7268 7.44603Z" fill="#3362AB"/>
<path d="M0.477539 0.737827L0.52723 0.539062H4.80068C5.39697 0.539062 5.84419 0.737827 5.99327 1.38381L6.9374 5.85603C5.99327 3.47085 3.80685 1.53289 0.477539 0.737827Z" fill="#F9B50B"/>
<path d="M12.9499 0.638314L8.6268 10.7256H5.69501L3.21045 2.27813C4.99933 3.42103 6.49007 5.20991 7.03668 6.45219L7.33482 7.49571L10.0182 0.588623H12.9499V0.638314Z" fill="#3362AB"/>
<path d="M14.093 0.588623H16.826L15.0868 10.7256H12.3538L14.093 0.588623Z" fill="#3362AB"/>
</svg>
