<svg width="106" height="32" viewBox="0 0 106 32" fill="none" xmlns="http://www.w3.org/2000/svg">
<path d="M17.2614 20.1116V31.2556H12.0322V1.86208C16.649 1.21329 21.2522 0.623474 25.8077 2.0876C27.4221 2.58107 28.8448 3.57675 29.877 4.93537C30.9091 6.29399 31.499 7.94761 31.5643 9.66497C31.799 13.8943 29.9006 17.2978 26.3181 18.9354C23.5079 20.233 20.5445 20.4863 17.2614 20.1116ZM17.3363 15.6256C20.7589 16.538 23.9808 15.7019 25.4199 13.5716C26.5222 11.9271 26.5222 9.05781 25.3961 7.51735C24.0352 5.60913 20.5786 4.89095 17.3329 5.87628L17.3363 15.6256Z" fill="#404040"/>
<path d="M88.7846 31.2962H83.7153C83.7153 27.7503 83.7153 24.2982 83.7153 20.8495C83.7153 19.8087 83.7425 18.7678 83.6439 17.727C83.4227 15.3504 82.1061 13.8932 80.1362 13.7301C79.0819 13.6357 78.03 13.9357 77.1767 14.5741C76.3234 15.2125 75.7271 16.1457 75.499 17.1996C75.3133 18.221 75.2346 19.2596 75.2642 20.2979C75.237 23.9235 75.2642 27.5491 75.2642 31.2788H70.0146V9.86859H74.3423C74.4647 10.7394 74.5906 11.6241 74.7471 12.7274C75.4032 12.0593 76.0925 11.4258 76.8122 10.8296C81.5209 7.32198 88.0021 9.66041 88.6723 15.5308C89.2609 20.7038 88.7846 25.9809 88.7846 31.2962Z" fill="#404040"/>
<path d="M55.3907 19.74C55.3499 25.4785 51.4442 30.1762 45.7863 31.2899C40.6252 32.31 35.0218 29.0625 33.0859 23.9311C32.1027 21.3481 32.0381 18.4953 32.9033 15.8687C33.7685 13.242 35.5088 11.0076 37.8218 9.55358C38.9207 8.85968 39.9583 8.56478 40.7749 9.81032C41.5914 11.0559 40.9144 11.892 39.7984 12.5859C37.0052 14.3519 35.6784 16.9505 35.9199 20.3125C36.1411 23.4107 37.7401 25.6277 40.4142 26.967C42.198 27.8258 44.2291 27.9865 46.1214 27.4185C48.0138 26.8505 49.6356 25.5934 50.6787 23.886C52.8017 20.3229 51.8865 15.6807 48.5319 13.037C48.2189 12.7906 47.8719 12.5894 47.5521 12.3431C46.6913 11.7012 46.4361 10.8824 47.0247 9.93869C47.6133 8.99499 48.4298 8.75907 49.4947 9.30378C52.9888 11.0975 55.418 15.3511 55.3907 19.74Z" fill="#404040"/>
<path d="M95.4811 13.8989L92.5586 13.7116V9.83617L95.2804 9.65228C95.4471 8.26449 95.1511 6.40484 95.8553 5.83584C97.0427 4.88173 98.8663 4.74642 100.642 4.19824V9.71474H105.705V13.7359H100.823C100.823 17.6182 100.737 21.2924 100.86 24.9632C100.914 26.5591 101.969 27.423 103.623 27.3432C104.181 27.3189 104.738 27.3432 105.273 27.3432C105.351 27.4751 105.45 27.5653 105.46 27.6659C105.8 31.5933 105.49 31.923 101.568 31.8293C98.0225 31.7391 95.8179 29.7476 95.6104 26.0803C95.4198 22.6802 95.5117 19.2662 95.4811 15.8557C95.4777 15.2278 95.4811 14.6067 95.4811 13.8989Z" fill="#404040"/>
<path d="M64.118 31.3147H58.9297V9.87671H64.118V31.3147Z" fill="#404040"/>
<path d="M0.70459 9.85083H5.85892V31.2784H0.70459V9.85083Z" fill="#404040"/>
<path d="M45.5558 11.9902C45.5558 14.4188 45.5558 16.8475 45.5558 19.2761C45.5558 20.5147 45.1135 21.3196 43.8071 21.2953C42.6299 21.2711 42.106 20.5529 42.106 19.3871C42.106 14.4697 42.106 9.55574 42.106 4.64526C42.106 3.51073 42.5687 2.71622 43.7832 2.70581C45.0625 2.70581 45.5694 3.45522 45.5592 4.70771C45.5422 7.13288 45.5558 9.56152 45.5558 11.9902Z" fill="#404040"/>
<path d="M64.5419 3.80303C64.5079 5.43369 63.2355 6.60985 61.497 6.60985C59.7958 6.60985 58.5234 5.3643 58.52 3.73711C58.5316 2.91979 58.857 2.13969 59.4263 1.5643C59.9956 0.988916 60.7635 0.664124 61.565 0.659668C62.3615 0.69518 63.1144 1.04101 63.6682 1.62586C64.2221 2.21071 64.5348 2.98999 64.5419 3.80303Z" fill="#404040"/>
<path d="M3.28703 0.78714C4.98813 0.78714 6.26736 2.02575 6.29798 3.65641C6.3286 5.39115 5.02215 6.62629 3.19857 6.60895C2.81514 6.6165 2.43417 6.545 2.0785 6.39873C1.72283 6.25246 1.39979 6.03444 1.12877 5.75773C0.857756 5.48103 0.644337 5.15135 0.50132 4.78848C0.358304 4.4256 0.288636 4.03701 0.296497 3.646C0.327117 1.96677 1.55871 0.780201 3.28703 0.78714Z" fill="#404040"/>
</svg>
