<svg width="199" height="52" viewBox="0 0 199 52" fill="none" xmlns="http://www.w3.org/2000/svg">
<g opacity="0.4">
<path opacity="0.4" d="M23.0556 1.79028H17.3457V7.29516H23.0556V1.79028Z" fill="#010101"/>
</g>
<path d="M23.0556 0.902344H17.3457V6.40722H23.0556V0.902344Z" fill="#424242"/>
<g opacity="0.4">
<path opacity="0.4" d="M51.5126 1.79053H45.8027V7.2954H51.5126V1.79053Z" fill="#010101"/>
</g>
<path d="M51.5126 0.902344H45.8027V6.40722H51.5126V0.902344Z" fill="#424242"/>
<g opacity="0.4">
<path opacity="0.4" d="M5.83381 18.4827H0.308105V23.7212V29.1373H6.018H9.51762V23.81H5.83381V18.4827Z" fill="#010101"/>
</g>
<path d="M5.83381 17.5947H0.308105V22.8332V28.2493H6.018H9.51762V22.922H5.83381V17.5947Z" fill="#424242"/>
<g opacity="0.4">
<path opacity="0.4" d="M62.9328 23.8984H59.249V29.2257H62.9328V34.553H68.4585V29.2257V23.8984H62.9328Z" fill="#010101"/>
</g>
<path d="M62.9328 23.0107H59.249V28.338H62.9328V33.6653H68.4585V28.338V23.0107H62.9328Z" fill="#424242"/>
<g opacity="0.4">
<path opacity="0.4" d="M51.4202 12.8002H45.8945V7.4729H40.1846H34.4747H28.7648H22.8707V12.8002H17.345V18.1275H11.8193V23.8099V29.3148V34.8197V40.4134H17.345V45.7407H22.8707V51.068H28.3965V45.7407H34.4747H40.3688V51.068H45.8945V45.7407H51.4202V40.4134H56.9459V34.8197V29.3148V23.8099V18.1275H51.4202V12.8002ZM28.3965 29.5812H22.8707V23.366H28.3965V29.5812ZM45.8945 29.67H40.3688V23.4548H45.8945V29.67Z" fill="#010101"/>
</g>
<path d="M51.4202 11.9123H45.8945V6.58496H40.1846H34.4747H28.7648H22.8707V11.9123H17.345V17.2396H11.8193V22.922V28.4269V33.9318V39.5254H17.345V44.8527H22.8707V50.18H28.3965V44.8527H34.4747H40.3688V50.18H45.8945V44.8527H51.4202V39.5254H56.9459V33.9318V28.4269V22.922V17.2396H51.4202V11.9123ZM28.3965 28.6932H22.8707V22.4781H28.3965V28.6932ZM45.8945 28.782H40.3688V22.5669H45.8945V28.782Z" fill="#424242"/>
<path d="M79.4175 35.0858V12.9775H92.495V16.1739H82.6408V22.4779H92.495V25.6743H82.6408V31.9782H92.495V35.1746L79.4175 35.0858ZM92.495 22.4779V16.1739H95.8104V22.4779H92.495ZM92.495 31.9782V25.6743H95.8104V31.9782H92.495Z" fill="#964298"/>
<path d="M102.625 35.1746V31.9782H105.941V16.1739H102.625V12.9775H112.48V16.1739H109.164V31.9782H112.48V35.1746H102.625Z" fill="#964298"/>
<path d="M119.202 31.9781V16.1738H122.517V31.9781H119.202ZM122.517 16.2625V13.0662H132.371V16.2625H122.517ZM122.517 35.1744V31.9781H132.371V35.1744H122.517ZM132.279 31.9781V25.6741H125.74V22.4777H135.595V31.9781H132.279ZM132.371 19.3701V16.1738H135.687V19.3701H132.371Z" fill="#964298"/>
<path d="M143.885 32.2448V25.4969H146.187V32.2448H143.885ZM153.278 36.773V34.5533H146.279V32.3336H153.278V25.5857H146.279V23.366H155.673V36.8618L153.278 36.773ZM146.279 38.9927V36.773H153.278V38.9927H146.279Z" fill="#424242"/>
<path d="M158.16 32.2447V25.4968H160.462V27.7165H167.461V25.4968H169.764V30.025H160.37V32.2447H158.16ZM160.554 25.4968V23.2771H167.553V25.4968H160.554ZM160.462 34.5532V32.3335H167.461V34.5532H160.462Z" fill="#424242"/>
<path d="M172.434 32.2447V25.4968H174.736V27.7165H181.736V25.4968H184.038V30.025H174.644V32.2447H172.434ZM174.736 25.4968V23.2771H181.736V25.4968H174.736ZM174.736 34.5532V32.3335H181.736V34.5532H174.736Z" fill="#424242"/>
<path d="M186.709 34.5533V18.749H189.011V27.8054H193.708V30.0251H189.011V34.5533H186.709ZM193.708 27.7166V25.4969H196.011V27.7166H193.708ZM193.708 32.2448V30.0251H196.011V32.2448H193.708ZM196.011 25.4969V23.2772H198.313V25.4969H196.011ZM196.011 34.5533V32.3336H198.313V34.5533H196.011Z" fill="#424242"/>
</svg>
