<svg width="94" height="21" viewBox="0 0 94 21" fill="none" xmlns="http://www.w3.org/2000/svg">
<path fill-rule="evenodd" clip-rule="evenodd" d="M19.8978 0.943701C18.4472 1.27378 17.672 2.08152 17.2635 3.68867C17.0269 4.61973 17.0269 9.54819 17.2635 10.4793C17.7986 12.5848 19.1928 13.4895 21.6561 13.3299C23.7418 13.1948 24.7489 12.0335 24.8394 9.65906L24.8608 9.09722L23.6384 9.07119L22.4159 9.04516L22.3499 9.77349C22.2621 10.7432 22.0283 11.2626 21.5987 11.4422C20.8779 11.7433 20.1011 11.2856 19.8683 10.4226C19.6496 9.61187 19.5414 7.16608 19.6554 5.60913C19.7148 4.79793 19.8106 3.95929 19.8683 3.74532C20.0915 2.91782 20.8127 2.46301 21.5326 2.69571C21.8823 2.80882 22.1958 3.35156 22.2013 3.85338C22.203 4.00789 22.2305 4.29236 22.2625 4.48545L22.3205 4.8366H23.5256H24.7306V4.2476C24.7306 2.64814 24.0287 1.50226 22.7642 1.03744C22.1913 0.826745 20.6353 0.775898 19.8978 0.943701ZM0.946045 7.07666V13.1706H2.21019H3.47433V10.6972V8.22375L4.99598 8.19041C6.81213 8.15071 7.2365 8.01409 7.9256 7.24774C8.55112 6.55199 8.74982 5.81626 8.69748 4.38956C8.63408 2.65853 8.19088 1.83244 7.03265 1.2868C6.52006 1.0453 6.50461 1.04399 3.73184 1.01346L0.946045 0.982749V7.07666ZM9.65457 7.08396V13.1706H13.0256H16.3967V12.2359V11.3013L14.3132 11.2761L12.2297 11.2509V9.5186V7.78626L14.1259 7.76089L16.0221 7.7356V6.80107V5.86664H14.1001H12.1781L12.2039 4.39181L12.2297 2.91698L14.2663 2.8917L16.303 2.86651V1.93189V0.997357H12.9788H9.65457V7.08396ZM25.71 1.11441C25.6855 1.17883 25.6762 3.90722 25.6896 7.1776L25.7138 13.1237L26.9537 13.1499L28.1937 13.176L28.2179 8.04649L28.2421 2.91698L29.6701 2.89113L31.0981 2.86529V8.01793V13.1706H32.3623H33.6264V7.08396V0.997357H29.6906C26.6282 0.997357 25.7448 1.0233 25.71 1.11441ZM34.5543 1.44215C34.6511 1.68683 35.3669 3.47788 36.1449 5.42241L37.5593 8.95779V11.0642V13.1706H38.8235H40.0876V11.061V8.95161L41.735 5.09149C42.6411 2.96848 43.404 1.17883 43.4305 1.11441C43.4677 1.02404 43.1829 0.997732 42.1811 0.998949L40.8835 1.00054L39.9553 3.48425C39.4448 4.85037 39.0023 5.98322 38.9721 6.00176C38.9418 6.02021 38.5197 4.90187 38.0339 3.51637L37.1508 0.997357H35.7645H34.3783L34.5543 1.44215ZM44.1141 7.09136V13.1854L46.8628 13.1546L49.6115 13.1237L50.2497 12.796C50.7318 12.5483 50.9634 12.358 51.1971 12.0171C51.627 11.39 51.7164 11.0393 51.7676 9.77836C51.8059 8.8355 51.7834 8.58557 51.6086 8.00997C51.4398 7.45403 51.3222 7.25785 50.9199 6.86063C50.215 6.16451 49.8064 6.03875 48.0704 5.98322L46.6424 5.93753V4.4038V2.87016H48.562H50.4816V1.93376V0.997357H47.2979H44.1141V7.09136ZM55.2273 1.06543C55.1953 1.11853 53.1124 8.6146 51.9093 13.0067C51.8681 13.1571 51.9725 13.1706 53.1819 13.1706H54.4994L54.5821 12.8662C54.6276 12.6989 55.1447 10.5299 55.7314 8.0463C56.318 5.56269 56.8257 3.56113 56.8596 3.5984C56.8934 3.63567 57.3081 5.35162 57.7812 7.4117C58.2542 9.47178 58.7473 11.6103 58.8768 12.1639L59.1123 13.1706H60.4696H61.827L61.7691 12.9131C61.7374 12.7715 61.0045 10.043 60.1407 6.84986L58.5702 1.04418L56.9206 1.01861C56.0133 1.00457 55.2513 1.02564 55.2273 1.06543ZM62.5106 1.11441C62.486 1.17883 62.4768 3.90722 62.4901 7.1776L62.5144 13.1237L64.2556 13.1491L65.9968 13.1746L67.5798 9.03814L69.1628 4.90168L69.2097 9.01267L69.2565 13.1237L70.4036 13.1501L71.5507 13.1764V7.08686V0.997357H69.922C68.4576 0.997357 68.2868 1.01393 68.2294 1.16123C68.1944 1.25131 67.4693 3.20024 66.6182 5.49208C65.7671 7.78392 65.0327 9.69914 64.9864 9.74802C64.9365 9.80074 64.9022 8.03769 64.9022 5.41717V0.997357H63.7288C62.8763 0.997357 62.5431 1.02938 62.5106 1.11441ZM72.6743 7.08396V13.1706H73.9373H75.2001L75.2248 10.0625L75.2494 6.95446L76.6926 10.0625L78.1357 13.1706H79.5252C80.2894 13.1706 80.9157 13.1389 80.9169 13.1003C80.9181 13.0618 80.1716 11.5529 79.2579 9.74746L77.5967 6.46472L79.2156 3.86162C80.106 2.42986 80.8571 1.19971 80.8846 1.12789C80.926 1.01992 80.699 0.997357 79.5731 0.997357H78.2115L76.7305 3.5924L75.2494 6.18755L75.2245 3.5924L75.1996 0.997357H73.937H72.6743V7.08396ZM84.7658 1.30169C84.7128 1.46912 83.9671 4.15462 83.1086 7.26946C82.2501 10.3844 81.5272 12.9864 81.5021 13.0517C81.4666 13.1442 81.7369 13.1706 82.7161 13.1706H83.9759L84.3309 11.8128L84.686 10.455H86.4019H88.1177L88.2104 10.8062C88.2613 10.9993 88.4156 11.6103 88.5533 12.1639L88.8036 13.1706H90.1029C91.0667 13.1706 91.4024 13.1409 91.4024 13.0558C91.4024 12.9926 90.6766 10.2536 89.7894 6.96916L88.1766 0.997357H86.5193H84.8621L84.7658 1.30169ZM5.43758 3.03422C5.94137 3.28836 6.14307 3.72331 6.14307 4.55568C6.14307 5.38159 5.93837 5.88799 5.49508 6.15824C5.26791 6.29682 5.02267 6.33419 4.3405 6.33447L3.47433 6.33484V4.6025V2.87016L4.29368 2.87035C4.88736 2.87044 5.20245 2.91557 5.43758 3.03422ZM87.56 8.51197C87.5617 8.55055 87.0364 8.5822 86.3926 8.5822C85.7421 8.5822 85.2221 8.5439 85.2221 8.49596C85.2221 8.36833 86.2476 3.6897 86.3115 3.52564C86.3533 3.41842 87.5455 8.17964 87.56 8.51197ZM48.5677 8.02392C49.0474 8.32029 49.2933 8.92202 49.2471 9.68659C49.2036 10.4067 49.0483 10.7768 48.6724 11.0552C48.4584 11.2139 48.241 11.2571 47.5253 11.2834L46.6424 11.3158V9.57451V7.83308H47.4507C48.1006 7.83308 48.3195 7.87044 48.5677 8.02392Z" fill="black"/>
<path d="M24.0446 18.6664C24.248 18.2645 24.2854 17.8385 24.402 17.4265C24.5358 16.9534 24.6472 16.4736 24.7616 16.0005C24.8013 15.8369 24.9022 15.7713 25.1355 15.7685C26.1261 15.7578 26.1261 15.7517 26.1261 16.4837C26.1261 17.7729 26.1127 19.0621 26.1373 20.3513C26.1426 20.6466 25.9699 20.6691 25.6693 20.6584C25.3949 20.6489 25.1243 20.6988 25.1459 20.3602C25.1796 19.7358 25.1609 19.1097 25.1564 18.4842C25.1564 18.3581 25.193 18.2258 25.0921 18.0986C24.9583 18.1333 25.0001 18.2196 24.9837 18.2835C24.8057 18.9875 24.6263 19.691 24.4543 20.3961C24.4057 20.5962 24.2734 20.6651 23.9938 20.6635C23.6872 20.6635 23.6745 20.5345 23.6319 20.3647C23.433 19.5604 23.2162 18.7583 23.0024 17.9416C22.8528 18.0403 22.9044 18.1658 22.9037 18.2779C22.8984 18.978 22.8917 19.6792 22.9097 20.3787C22.9149 20.6029 22.8229 20.6909 22.5261 20.659C22.2749 20.6304 21.928 20.7621 21.928 20.3838C21.9414 18.9373 21.9414 17.4904 21.928 16.0431C21.928 15.8262 22.0394 15.7629 22.3018 15.7763C22.5867 15.7904 22.8999 15.7371 23.1519 15.8083C23.4764 15.9002 23.3358 16.1894 23.3934 16.3862C23.5998 17.0941 23.759 17.8099 23.9377 18.5229C23.9549 18.5671 23.922 18.6322 24.0446 18.6664Z" fill="#3CB7C8"/>
<path d="M16.9336 18.5114C17.2506 18.0686 17.3628 17.5815 17.5818 17.1241C17.7665 16.7396 17.9011 16.3394 18.0783 15.9554C18.2278 15.6281 18.6099 15.8035 18.8865 15.7828C19.1631 15.7621 19.0854 15.9549 19.0854 16.0704C19.0899 17.4802 19.0899 18.8901 19.0854 20.3C19.0854 20.4121 19.1639 20.5724 18.9747 20.6268C18.7495 20.6848 18.5052 20.6864 18.2787 20.6313C18.1374 20.5999 18.1904 20.4698 18.1904 20.3813C18.1904 19.6341 18.1904 18.8875 18.1904 18.1392C18.1904 18.0322 18.2308 17.915 18.1037 17.7827C17.9773 18.0546 17.8555 18.2978 17.7516 18.5456C17.4831 19.184 17.2282 19.8252 16.9575 20.4625C16.8155 20.7989 16.4342 20.6279 16.156 20.6441C15.8988 20.6593 15.9414 20.476 15.9414 20.3527C15.9414 18.915 15.9527 17.4767 15.931 16.0367C15.9257 15.6965 16.2009 15.7845 16.4439 15.7699C16.7183 15.7537 16.8783 15.7817 16.8686 16.0474C16.8409 16.7844 16.8551 17.5226 16.8573 18.2603C16.8551 18.3404 16.805 18.4296 16.9336 18.5114Z" fill="#3CB6C8"/>
<path d="M10.697 17.7664C10.4129 18.4245 10.1489 19.0405 9.8895 19.6576C9.77586 19.9238 9.67716 20.1929 9.56202 20.4586C9.41698 20.7949 9.03866 20.6267 8.76277 20.6447C8.50333 20.6615 8.53847 20.4844 8.53847 20.3577C8.53847 18.92 8.53847 17.4822 8.53174 16.0445C8.53174 15.8411 8.59529 15.7643 8.88389 15.7688C9.4566 15.7788 9.4566 15.7688 9.45585 16.1841C9.45585 16.8844 9.45585 17.5844 9.45585 18.2843C9.45585 18.3538 9.41623 18.4323 9.5224 18.5085C9.81548 18.1829 9.88128 17.8029 10.0458 17.452C10.2701 16.9699 10.4742 16.4828 10.6701 15.9946C10.8151 15.6348 11.1987 15.7968 11.4835 15.7828C11.7961 15.7671 11.6854 15.9739 11.6861 16.0938C11.6931 17.5138 11.6931 18.9329 11.6861 20.351C11.6861 20.458 11.74 20.6071 11.5478 20.6374C11.3235 20.6727 11.0731 20.6934 10.854 20.6211C10.7456 20.5841 10.7889 20.4687 10.7889 20.3868C10.7889 19.6402 10.7889 18.8931 10.7889 18.1448C10.7867 18.0366 10.8241 17.9234 10.697 17.7664Z" fill="#3BB6C8"/>
<path d="M80.7242 18.6071L81.679 16.3718C81.7097 16.3006 81.7403 16.23 81.7747 16.1599C81.9646 15.7743 82.1366 15.7054 82.6794 15.7743C82.8499 15.795 82.8693 15.8662 82.8693 15.9688C82.8693 17.4635 82.8693 18.9582 82.8693 20.4529C82.8693 20.6149 82.7728 20.6553 82.5702 20.6603C81.9459 20.6754 81.9444 20.6794 81.9452 20.2153C81.9452 19.5154 81.9452 18.8151 81.9452 18.1145C81.9452 18.0265 81.9781 17.9329 81.8869 17.8207C81.5781 18.3056 81.4383 18.8106 81.214 19.2938C81.0375 19.6794 80.9052 20.0785 80.734 20.4636C80.5897 20.7887 80.2106 20.6351 79.9295 20.6491C79.6618 20.6626 79.7134 20.4843 79.7134 20.3604C79.7134 18.9227 79.7224 17.485 79.7037 16.0473C79.6992 15.7143 79.9728 15.7883 80.2211 15.776C80.4693 15.7637 80.6323 15.7833 80.6233 16.0378C80.5971 16.7838 80.6106 17.5315 80.6151 18.2798C80.6225 18.3807 80.5702 18.4995 80.7242 18.6071Z" fill="#3BB6C8"/>
<path d="M32.0763 20.7751C31.0588 20.8468 30.5616 20.2353 30.4599 19.6922C30.4307 19.5352 30.3986 19.3789 30.3791 19.2214C30.353 19.0117 30.4771 18.9007 30.7687 18.9159C31.0206 18.9293 31.3474 18.8335 31.3459 19.181C31.3459 19.4467 31.4707 19.6709 31.8408 19.7796C32.2625 19.9035 32.6633 19.7269 32.7007 19.3873C32.7088 19.294 32.7105 19.2004 32.7059 19.107C32.6969 18.7522 32.5504 18.6188 32.0823 18.6317C31.7182 18.6423 31.6128 18.5353 31.6509 18.2903C31.6558 18.225 31.6558 18.1595 31.6509 18.0942C31.6509 17.713 31.6509 17.708 32.1593 17.6839C32.2467 17.6844 32.332 17.6634 32.4019 17.6241C32.4719 17.5848 32.5227 17.5294 32.5466 17.4664C32.646 17.2619 32.641 17.0371 32.5324 16.8352C32.433 16.6486 32.2147 16.5768 31.9537 16.611C31.6748 16.6464 31.5343 16.7915 31.4812 16.9905C31.3818 17.3588 31.1881 17.4513 30.6976 17.3666C30.6139 17.3526 30.5361 17.3504 30.501 17.2668C30.3305 16.8605 30.8083 15.9536 31.3474 15.7473C32.2229 15.411 33.3915 15.6772 33.5859 16.532C33.7093 17.0751 33.7167 17.5897 33.1582 18.0185C33.0588 18.0953 33.0633 18.1508 33.2008 18.2136C33.559 18.3778 33.7025 18.6429 33.7287 18.9422C33.7512 19.2036 33.7475 19.4659 33.7175 19.7269C33.6435 20.3312 33.061 20.8429 32.0763 20.7751Z" fill="#3DB7C9"/>
<path d="M7.44015 18.193C7.44015 18.9116 7.41996 19.6302 7.44837 20.3476C7.46183 20.671 7.22407 20.6503 6.92949 20.6604C6.62295 20.6716 6.48089 20.6267 6.49285 20.3594C6.52201 19.8549 6.49285 19.3505 6.50482 18.8488C6.5093 18.6352 6.41285 18.5545 6.11304 18.5613C5.245 18.5809 5.33322 18.4901 5.32874 19.1453C5.32874 19.5556 5.31902 19.9665 5.33322 20.3784C5.33995 20.5785 5.25846 20.6626 4.97359 20.6587C4.37546 20.6587 4.37546 20.6671 4.37546 20.2265C4.37546 18.846 4.38892 17.4649 4.36499 16.0849C4.35677 15.7744 4.55415 15.7665 4.86219 15.7677C5.16126 15.7677 5.36388 15.7761 5.33846 16.0748C5.30406 16.4739 5.33846 16.8763 5.32425 17.2771C5.31603 17.4896 5.39902 17.582 5.70257 17.5759C6.6551 17.5568 6.48687 17.6644 6.50108 16.9924C6.50781 16.6561 6.5093 16.3198 6.49659 15.9834C6.49136 15.8304 6.55865 15.7564 6.77248 15.7744C6.85923 15.7811 6.94667 15.7811 7.03342 15.7744C7.36912 15.7424 7.46781 15.8248 7.45286 16.0972C7.41398 16.7928 7.44015 17.4935 7.44015 18.193Z" fill="#44B9CA"/>
<path d="M64.7024 18.1845C64.7024 17.4838 64.7122 16.7832 64.6965 16.0831C64.692 15.8589 64.7712 15.7642 65.0905 15.7698C65.8748 15.7838 66.6606 15.781 67.4441 15.7698C67.726 15.7658 67.8404 15.8258 67.8382 16.0534C67.8262 17.4911 67.8232 18.9294 67.8382 20.3693C67.8382 20.6832 67.5989 20.6496 67.3283 20.658C67.0576 20.6664 66.8961 20.6406 66.9013 20.3778C66.9208 19.2758 66.9013 18.1738 66.9178 17.0707C66.9215 16.8101 66.843 16.7081 66.4692 16.717C65.6744 16.7367 65.6737 16.7221 65.6737 17.3078C65.6737 18.3072 65.6632 19.306 65.6811 20.3054C65.6856 20.5588 65.6296 20.6782 65.2423 20.6597C64.7077 20.6339 64.7054 20.6535 64.7047 20.3122L64.7024 18.1845Z" fill="#3CB7C8"/>
<path d="M49.0294 18.1689C49.0294 17.4318 49.0354 16.6947 49.0242 15.9576C49.0242 15.8125 49.1049 15.7749 49.2627 15.7749C50.1472 15.7749 51.0309 15.7749 51.9147 15.7749C52.0986 15.7749 52.139 15.8495 52.139 15.9722C52.136 17.4561 52.136 18.9401 52.139 20.4244C52.139 20.5925 52.0418 20.6486 51.8234 20.6581C51.1991 20.6805 51.1999 20.6856 51.1999 20.2265C51.1999 19.1531 51.1924 18.0797 51.2066 17.0069C51.2066 16.7827 51.1169 16.7188 50.8231 16.7211C49.9782 16.7283 49.9782 16.7211 49.9782 17.3567C49.9782 18.3656 49.9692 19.3745 49.9864 20.3834C49.9864 20.6144 49.8855 20.6844 49.5991 20.6603C49.3457 20.639 49.0287 20.7355 49.0369 20.3846C49.0556 19.6475 49.0429 18.9104 49.0429 18.1728L49.0294 18.1689Z" fill="#40B8C9"/>
<path d="M68.9312 18.2011C68.9312 17.4831 68.9402 16.7645 68.926 16.0465C68.9215 15.8441 68.9851 15.7662 69.2759 15.769C70.0096 15.7832 70.7436 15.7832 71.4778 15.769C71.7821 15.764 71.8561 15.8531 71.8516 16.0661C71.8442 16.7224 71.8516 16.7224 70.9911 16.7224C70.7055 16.7224 70.4191 16.7264 70.1327 16.7224C69.9279 16.7196 69.8419 16.7863 69.8449 16.941C69.8628 17.8379 69.7081 17.6697 70.7488 17.6804C71.5974 17.6893 71.584 17.6804 71.5922 18.3154C71.5959 18.5604 71.495 18.6478 71.1645 18.6271C70.8341 18.6063 70.4916 18.6271 70.1574 18.6215C69.9331 18.6181 69.8396 18.6887 69.8456 18.8558C69.8793 19.8708 69.6213 19.6567 70.8864 19.6825H70.9238C71.9473 19.6825 71.9443 19.6825 71.8703 20.4577C71.8584 20.5782 71.8225 20.6522 71.6378 20.6516C70.8169 20.6516 69.9957 20.6516 69.1742 20.6516C68.8998 20.6516 68.9297 20.5126 68.929 20.3815L68.9312 18.2011Z" fill="#3AB6C8"/>
<path d="M53.2386 18.1931C53.2386 17.4745 53.2483 16.7559 53.2326 16.0379C53.2274 15.8244 53.3209 15.7655 53.5952 15.7706C54.3295 15.7829 55.0644 15.7812 55.7979 15.7706C56.0783 15.7666 56.1605 15.8434 56.1605 16.0508C56.1605 16.7234 56.1702 16.7234 55.288 16.7234C55.039 16.7234 54.79 16.7234 54.5403 16.7234C54.4655 16.7234 54.3668 16.7066 54.3205 16.7352C53.981 16.9454 54.2188 17.2329 54.1642 17.4829C54.1283 17.6449 54.2846 17.6842 54.4723 17.6825C54.8461 17.6797 55.2199 17.687 55.5938 17.6825C55.7964 17.6791 55.8876 17.7318 55.8839 17.8921C55.8622 18.7744 56.0147 18.6101 54.9627 18.6208C54.0341 18.632 54.165 18.5462 54.1575 19.2373C54.153 19.6796 54.1575 19.6796 54.7481 19.6801C55.122 19.6801 55.4958 19.6886 55.8697 19.6801C56.1186 19.6723 56.1837 19.7452 56.1852 19.9251C56.1911 20.6538 56.1986 20.6538 55.2424 20.6538C54.707 20.6538 54.1717 20.6425 53.6371 20.6582C53.3179 20.6683 53.2311 20.5758 53.2356 20.3488C53.2483 19.6297 53.2386 18.9134 53.2386 18.1931Z" fill="#3AB6C8"/>
<path d="M1.68538 17.6449C1.97772 17.1102 2.24389 16.6046 2.53249 16.1069C2.59754 15.9947 2.58857 15.8109 2.79044 15.7913C3.08714 15.764 3.38719 15.764 3.6839 15.7913C3.83343 15.8042 3.73848 15.9034 3.69736 15.9673C3.32352 16.5452 2.96464 17.1275 2.57586 17.6993C2.50803 17.7868 2.47057 17.8856 2.46692 17.9868C2.46326 18.0879 2.49352 18.1882 2.55492 18.2783C2.9796 18.9896 3.37736 19.7098 3.78857 20.4256C3.87755 20.5803 3.82895 20.6588 3.59418 20.6543C3.53212 20.6543 3.47007 20.6543 3.40801 20.6543C2.71941 20.6543 2.73062 20.6543 2.51081 20.1622C2.25585 19.6017 1.97922 19.0484 1.70183 18.4711C1.5523 18.5613 1.59641 18.6678 1.59566 18.7581C1.59566 19.29 1.57772 19.8231 1.60314 20.3533C1.6151 20.6139 1.47454 20.6773 1.16351 20.6577C0.892108 20.6403 0.613976 20.707 0.618462 20.3651C0.637901 18.9285 0.632667 17.4919 0.618462 16.0547C0.618462 15.8305 0.723883 15.7633 1.00949 15.77C1.68239 15.7846 1.5837 15.7207 1.58744 16.2005C1.58744 16.5827 1.58744 16.965 1.58744 17.3478C1.59043 17.4364 1.56426 17.5311 1.68538 17.6449Z" fill="#3CB6C8"/>
<path d="M73.6274 18.5312C73.46 18.6545 73.5676 18.7671 73.5669 18.8708C73.5669 19.3837 73.5601 19.8971 73.5669 20.41C73.5669 20.5905 73.4824 20.6544 73.2394 20.6572C72.6121 20.6656 72.6129 20.6729 72.6129 20.2161C72.6129 18.8355 72.6248 17.4544 72.6031 16.0739C72.5979 15.7734 72.7893 15.7667 73.0816 15.7712C73.3583 15.7751 73.5938 15.7516 73.5729 16.0643C73.5392 16.552 73.5639 17.0413 73.5639 17.5631C73.7005 17.47 73.8034 17.3523 73.863 17.2212C74.0917 16.7795 74.3347 16.3418 74.5665 15.9001C74.6084 15.8194 74.6689 15.7712 74.7826 15.7773C75.0861 15.7936 75.4719 15.677 75.6648 15.8334C75.774 15.9236 75.4921 16.186 75.3747 16.367C75.0607 16.8507 74.7452 17.3333 74.4357 17.8187C74.3997 17.8787 74.3818 17.9439 74.3832 18.0097C74.3847 18.0755 74.4054 18.1402 74.4439 18.1993C74.8618 18.9179 75.2663 19.6342 75.6843 20.3483C75.8248 20.5899 75.7852 20.6477 75.4398 20.6538C74.7116 20.6667 74.7078 20.6678 74.4506 20.1494C74.2383 19.7222 74.0387 19.2918 73.8278 18.8641C73.7717 18.7548 73.7 18.6511 73.6274 18.5312Z" fill="#3BB6C8"/>
<path d="M61.5361 18.292C61.5099 18.7047 61.6048 19.1167 61.8142 19.4988C61.9309 19.7006 62.1238 19.8279 62.4056 19.8127C62.6875 19.7976 62.8303 19.6446 62.8961 19.4467C62.935 19.3296 63.018 19.2158 63.0225 19.0992C63.0299 18.9114 63.1413 18.8666 63.3709 18.8655C63.9727 18.861 63.9899 18.8694 63.9294 19.3139C63.8826 19.6191 63.7744 19.9173 63.6086 20.1984C63.184 20.9523 61.6595 20.9657 61.1069 20.3441C60.769 19.9641 60.6479 19.5409 60.5836 19.1076C60.4557 18.259 60.4819 17.4087 60.8258 16.5898C61.018 16.1318 61.3492 15.7176 62.0834 15.6369C62.7974 15.5567 63.4412 15.8561 63.7133 16.3925C63.8396 16.6659 63.9127 16.9515 63.9301 17.2405C63.9443 17.3885 63.8733 17.4591 63.6587 17.4698C63.0897 17.4961 63.0905 17.5023 62.935 17.083C62.9185 17.0382 62.9058 16.9922 62.8864 16.9479C62.8071 16.7675 62.6621 16.634 62.3952 16.6144C62.1282 16.5948 61.9466 16.7131 61.8396 16.8818C61.563 17.3089 61.5324 17.7736 61.5361 18.292Z" fill="#3DB7C8"/>
<path d="M43.0052 20.431C42.8512 20.6463 42.5843 20.4916 42.3787 20.5375C42.0796 20.6048 42.0302 20.4669 41.9435 20.2898C41.8269 20.0549 41.7805 19.7965 41.5697 19.588C41.3282 19.4804 41.3559 19.2702 41.2534 19.1099C41.151 18.9496 41.1353 18.7529 40.9207 18.6195C40.816 18.726 40.8362 18.8381 40.8355 18.9457C40.8355 19.3941 40.8355 19.8425 40.8355 20.2909C40.8355 20.421 40.8639 20.5712 40.6538 20.6244C40.4399 20.6792 40.2073 20.6772 39.9951 20.6188C39.8501 20.5762 39.9054 20.4563 39.9054 20.3683C39.9054 19.6127 39.9054 18.8549 39.9054 18.1015C39.9054 17.4205 39.9181 16.7389 39.8987 16.0585C39.8919 15.8275 40.0078 15.7709 40.2889 15.7732C40.843 15.7743 40.843 15.7659 40.843 16.1801C40.843 16.5343 40.843 16.8893 40.843 17.2451C40.843 17.3275 40.8108 17.4497 40.9222 17.4726C41.0889 17.5074 41.0792 17.3605 41.1405 17.2888C41.385 16.8522 41.6482 16.4211 41.8635 15.9766C41.945 15.8023 42.0684 15.7743 42.2732 15.7743C43.0957 15.7653 43.0897 15.7614 42.7368 16.3062C42.4003 16.823 42.0729 17.3437 41.7402 17.8622C41.7086 17.9025 41.6903 17.948 41.687 17.9947C41.6836 18.0414 41.6951 18.088 41.7207 18.1307C42.2164 18.8756 42.5267 19.68 43.0052 20.431Z" fill="#3BB6C8"/>
<path d="M27.2355 20.1627C27.2355 20.0876 27.2414 20.0131 27.2355 19.9385C27.2168 19.7536 27.2549 19.6583 27.5659 19.7222C27.8433 19.7782 27.9487 19.6056 27.9876 19.424C28.0527 19.1247 27.8755 18.8534 27.7798 18.5793C27.4807 17.7256 27.1412 16.8804 26.8123 16.0334C26.7465 15.8653 26.7614 15.7756 27.0485 15.77C27.8956 15.7537 27.9024 15.7554 28.0639 16.4135C28.1596 16.8058 28.2762 17.1982 28.3884 17.5861C28.4115 17.6651 28.4347 17.7738 28.5723 17.7677C28.7099 17.7615 28.6657 17.6494 28.6814 17.5844C28.8003 17.0995 28.9259 16.6147 29.0134 16.127C29.0605 15.8664 29.1869 15.7308 29.5585 15.7734C29.658 15.7795 29.758 15.7795 29.8575 15.7734C30.0908 15.7694 30.1409 15.8193 30.0773 16.0093C29.8343 16.738 29.634 17.4784 29.4112 18.2127C29.2123 18.8652 29.0179 19.5181 28.7943 20.1655C28.7076 20.4172 28.4609 20.6016 28.1491 20.7182C27.6392 20.9105 27.2355 20.6605 27.2355 20.1627Z" fill="#3BB6C8"/>
<path d="M77.9681 18.6783C77.9681 19.2478 77.9524 19.8179 77.9756 20.3868C77.9876 20.6592 77.7939 20.6671 77.5322 20.6547C77.2705 20.6424 77.0014 20.7108 77.0089 20.3823C77.0253 19.2708 77.0089 18.1599 77.0246 17.0489C77.029 16.7816 76.9079 16.7126 76.576 16.7188C75.8156 16.7328 75.9345 16.7687 75.9255 16.2261C75.9255 16.142 75.9315 16.0579 75.9255 15.9739C75.9083 15.8304 75.9943 15.7743 76.1842 15.7743C77.044 15.7743 77.9038 15.7743 78.7629 15.7743C78.7995 15.7743 78.8496 15.7665 78.8728 15.7811C79.2085 15.9952 78.9633 16.2816 79.0298 16.5305C79.0679 16.674 78.9431 16.7317 78.7599 16.7238H78.7225C77.9681 16.7496 77.9681 16.7496 77.9681 17.3057V18.6783Z" fill="#3BB6C8"/>
<path d="M13.7198 18.6894C13.7198 19.2499 13.7086 19.8105 13.7258 20.371C13.7325 20.5862 13.6585 20.6905 13.352 20.6563C13.2525 20.6492 13.1524 20.6492 13.0529 20.6563C12.8286 20.6624 12.7471 20.5913 12.7538 20.4197C12.8106 18.9456 12.8106 17.4714 12.7538 15.9973C12.7471 15.8387 12.8248 15.7731 13.0305 15.7759C13.6779 15.7759 14.3321 15.7344 14.9744 15.7888C15.5546 15.8375 15.1591 16.2209 15.2503 16.4429C15.3138 16.5976 15.2563 16.7405 14.9564 16.7288C14.6566 16.717 14.3583 16.7366 14.0592 16.7231C13.7938 16.7108 13.7131 16.7898 13.7176 16.9827C13.7273 17.5505 13.7191 18.1199 13.7198 18.6894Z" fill="#3BB6C8"/>
<path d="M38.8815 18.2187C38.8815 18.9284 38.8725 19.638 38.8875 20.3487C38.8919 20.5729 38.8127 20.6671 38.4927 20.662C37.9013 20.6531 37.9028 20.6654 37.9028 20.2276C37.9028 18.8196 37.9088 17.4122 37.8931 16.0042C37.8931 15.8029 37.9828 15.7699 38.2123 15.7715C39.0138 15.7777 38.8755 15.7486 38.88 16.2598C38.8852 16.9116 38.8815 17.568 38.8815 18.2187Z" fill="#45B9CA"/>
<path d="M37.4786 18.0675C37.7029 18.3113 37.7179 18.5922 37.7104 18.8707C37.6992 19.2777 37.7911 19.6908 37.5609 20.0859C37.3717 20.4161 37.0711 20.6212 36.5799 20.633C36.0326 20.6459 35.4853 20.6453 34.935 20.6565C34.7107 20.661 34.624 20.5921 34.6248 20.4245C34.6282 18.9399 34.6282 17.4553 34.6248 15.9706C34.6248 15.8266 34.6928 15.7784 34.8849 15.77C35.6094 15.7369 35.6094 15.7319 35.6094 16.2655C35.6094 16.5922 35.6199 16.919 35.6057 17.2458C35.5967 17.4532 35.7022 17.5261 35.9795 17.5188C36.3982 17.5109 36.8237 17.5036 37.1758 17.7312C37.3253 17.8254 37.4472 17.9223 37.4801 18.0703C37.3485 18.1017 37.2655 18.0367 37.187 17.9801C36.888 17.7654 36.5373 17.6965 36.1283 17.7037C35.507 17.7144 35.424 17.6404 35.4188 17.1685C35.4188 16.8417 35.4188 16.5149 35.4188 16.1881C35.4188 16.0289 35.3642 15.9146 35.1055 15.9185C34.8603 15.9224 34.8259 16.039 34.8251 16.1814C34.8251 17.5165 34.8251 18.8511 34.8251 20.1857C34.8251 20.3746 34.9306 20.4559 35.1825 20.4531C35.5564 20.4497 35.9302 20.4435 36.304 20.4531C37.0517 20.4755 37.3919 20.2216 37.4913 19.6308C37.5609 19.2211 37.593 18.7928 37.4166 18.3814C37.3635 18.2732 37.3612 18.1611 37.4786 18.0675Z" fill="#45B9CA"/>
<path fill-rule="evenodd" clip-rule="evenodd" d="M83.9671 18.1925C83.9671 17.996 83.968 17.7994 83.969 17.6029C83.9714 17.099 83.9738 16.5953 83.9603 16.0933C83.9536 15.854 84.0351 15.757 84.376 15.7693C84.6953 15.7819 85.016 15.7792 85.3375 15.7766C85.4904 15.7753 85.6434 15.774 85.7966 15.7744C86.3043 15.7744 86.619 15.9179 86.7843 16.285C87.0295 16.8332 87.0774 17.3814 86.5749 17.8802C86.4591 17.9923 86.5159 18.0815 86.6235 18.1768C87.3144 18.7855 87.2284 19.4659 86.9002 20.1498C86.7708 20.4194 86.4598 20.5763 86.0441 20.6144C85.6822 20.6478 85.3199 20.6481 84.958 20.6484H84.958H84.9579C84.7486 20.6486 84.5394 20.6488 84.3304 20.6553C84.0508 20.6638 83.9618 20.5786 83.9648 20.3751C83.9703 19.89 83.9691 19.405 83.968 18.9199C83.9674 18.6774 83.9668 18.4349 83.9671 18.1925ZM84.9217 19.1414V19.1134C84.9217 18.5586 85.0869 18.4589 85.797 18.6449C86.1528 18.7385 86.1476 18.9996 86.1244 19.2339C86.0848 19.6261 85.4726 19.866 85.0151 19.6727C84.9232 19.634 84.9224 19.5685 84.9217 19.5046L84.9217 19.5045C84.9202 19.3824 84.9209 19.2619 84.9217 19.1414ZM84.9189 17.0962C84.9163 17.124 84.9163 17.1519 84.9189 17.1797H84.9279C84.9279 17.2199 84.9274 17.26 84.9269 17.3002C84.9259 17.3805 84.9249 17.4608 84.9279 17.5412C84.9248 17.5781 84.9413 17.6144 84.9738 17.6422C85.0063 17.67 85.0521 17.6871 85.1013 17.6897C85.724 17.7905 86.0305 17.5927 85.9826 17.113C85.9535 16.8138 85.7143 16.7079 85.1798 16.7168C84.8625 16.7222 84.8858 16.8446 84.9093 16.9681C84.9178 17.0124 84.9262 17.057 84.9189 17.0962Z" fill="#3AB6C8"/>
<path fill-rule="evenodd" clip-rule="evenodd" d="M43.2119 20.3437C43.1843 20.4491 43.1192 20.4609 43.0056 20.4311C42.893 20.4612 42.7762 20.4605 42.6596 20.4598C42.5912 20.4594 42.5228 20.459 42.4553 20.4648C42.216 20.4889 42.0972 20.4132 42.0224 20.2451C42.0025 20.1997 41.9839 20.154 41.9652 20.1081C41.9082 19.9682 41.8511 19.8278 41.757 19.6986C41.7488 19.6873 41.7419 19.6741 41.735 19.6607C41.7075 19.6078 41.6781 19.5513 41.5588 19.596L41.5581 19.5994C41.5426 19.6695 41.5269 19.7405 41.5865 19.8056C41.6176 19.8686 41.6492 19.9315 41.6807 19.9943C41.7495 20.1312 41.8183 20.2682 41.8818 20.4065C41.9589 20.573 42.074 20.6666 42.3409 20.657C42.8149 20.6419 43.289 20.6453 43.7615 20.657C44.0658 20.6649 44.2019 20.5668 44.2019 20.3471C44.205 20.1975 44.2451 20.0496 44.32 19.911C44.3371 19.8664 44.3722 19.8268 44.4206 19.7978C44.4689 19.7688 44.5281 19.7517 44.5899 19.749C45.3458 19.6773 45.4639 19.7333 45.6299 20.2736C45.6374 20.299 45.6484 20.3238 45.6594 20.3486C45.6681 20.3682 45.6768 20.3878 45.6837 20.4076C45.766 20.6408 46.095 20.7428 46.548 20.6486C46.8034 20.5956 46.7438 20.4898 46.6847 20.3847C46.6607 20.3421 46.6368 20.2996 46.634 20.2607C46.6241 20.1961 46.6084 20.1321 46.5869 20.0691C46.4025 19.405 46.2196 18.741 46.0381 18.077C45.9931 17.9123 45.9465 17.7478 45.9 17.5833C45.7767 17.1476 45.6534 16.7119 45.5574 16.2733C45.5528 16.2524 45.5485 16.2323 45.5443 16.2131C45.4486 15.7718 45.4477 15.7679 44.8179 15.7722H44.6684C44.5084 15.7654 44.4254 15.8086 44.394 15.9403C44.3335 16.1885 44.2636 16.4368 44.1938 16.685C44.1533 16.8291 44.1127 16.9733 44.074 17.1174C43.7834 18.1928 43.4961 19.2683 43.2119 20.3437ZM45.2239 18.495C45.1596 18.1372 45.0949 17.7778 44.859 17.4442C44.8316 17.5683 44.8029 17.6925 44.7742 17.8166C44.7045 18.1183 44.6348 18.4199 44.5824 18.7205C44.5548 18.8735 44.7104 18.8698 44.8435 18.8666C44.862 18.8661 44.8801 18.8657 44.8972 18.8657C44.9238 18.8653 44.9531 18.8665 44.9832 18.8677C45.131 18.8738 45.2976 18.8807 45.2628 18.7037C45.249 18.6343 45.2365 18.5647 45.2239 18.495Z" fill="#42B8CA"/>
<path fill-rule="evenodd" clip-rule="evenodd" d="M58.2922 15.7766C58.204 15.7777 58.1158 15.7787 58.0277 15.7787L58.0292 15.7737H57.132C56.9249 15.7737 56.8523 15.8409 56.8591 15.9979C56.9181 17.4709 56.9151 18.9439 56.8591 20.417C56.8591 20.5868 56.9338 20.6614 57.1581 20.6558C57.2826 20.6496 57.4075 20.6496 57.532 20.6558C57.7563 20.6737 57.8378 20.5997 57.831 20.4316C57.822 20.2194 57.8239 20.0077 57.8258 19.7965C57.8265 19.7092 57.8273 19.6219 57.8273 19.5347C57.8297 19.2324 57.8055 19.0912 57.8649 19.0261C57.9337 18.9506 58.1149 18.9775 58.5802 18.9742C59.1911 18.9697 59.5589 18.7831 59.7683 18.3694C60.0741 17.7646 60.0292 17.1441 59.8797 16.5276C59.7892 16.1588 59.2838 15.8 58.886 15.7815C58.6888 15.7718 58.4905 15.7742 58.2922 15.7766ZM57.8206 17.177C57.8135 17.2417 57.8135 17.3068 57.8206 17.3715H57.8243V17.8171C57.8251 17.8933 57.8318 17.9645 57.9417 18.0054C58.0441 18.0451 58.1582 18.0648 58.2734 18.0626C58.3886 18.0604 58.5013 18.0365 58.6009 17.993C58.7005 17.9495 58.7839 17.8879 58.8432 17.8138C58.9026 17.7398 58.9361 17.6557 58.9406 17.5693C58.9458 17.4488 58.9451 17.3278 58.9406 17.2072C58.9241 16.8126 58.7694 16.7314 58.1862 16.7157C57.7815 16.7048 57.7999 16.8625 57.8184 17.0211C57.8247 17.0752 57.831 17.1294 57.8206 17.177Z" fill="#3EB7C9"/>
<path fill-rule="evenodd" clip-rule="evenodd" d="M89.9224 16.3282C89.8796 16.1646 89.8368 16.001 89.7938 15.8374C89.68 15.7657 89.5512 15.7707 89.4212 15.7758C89.3521 15.7785 89.2828 15.7812 89.2152 15.7724C88.9041 15.7343 88.7352 15.8425 88.7037 16.0639C88.6741 16.278 88.6121 16.4877 88.5503 16.6969C88.5219 16.7932 88.4935 16.8894 88.4682 16.9859C88.375 17.3515 88.2724 17.7158 88.1698 18.0801C88.0668 18.446 87.9637 18.8119 87.8701 19.1792C87.8536 19.2433 87.8416 19.3089 87.8295 19.3747C87.801 19.53 87.7724 19.6865 87.6847 19.8266C87.6174 19.9344 87.6046 20.0479 87.592 20.1609C87.5798 20.2688 87.5678 20.3763 87.5082 20.4779C87.5015 20.4914 87.4985 20.5057 87.4994 20.52C87.5003 20.5344 87.505 20.5484 87.5133 20.5614C87.5217 20.5743 87.5334 20.5858 87.5478 20.5953C87.5622 20.6047 87.579 20.6119 87.5972 20.6164C87.8499 20.6683 88.1159 20.6719 88.371 20.627C88.5041 20.6061 88.5095 20.5239 88.5149 20.4427C88.5173 20.4067 88.5197 20.3708 88.5333 20.3406C88.5418 20.3217 88.5508 20.3027 88.5598 20.2837C88.6082 20.1812 88.6575 20.0771 88.6462 19.9617C88.6342 19.8395 88.7359 19.779 88.8907 19.7549C89.666 19.6366 89.8903 19.7509 89.9965 20.3249C90.0057 20.3712 90.0195 20.4169 90.0376 20.4617C90.0795 20.5699 90.1669 20.6489 90.3269 20.6433C90.3927 20.6415 90.4597 20.6459 90.5267 20.6503C90.6944 20.6612 90.8622 20.6721 91.0118 20.5872C91.0392 20.5673 91.057 20.5411 91.0623 20.5128C91.0675 20.4845 91.06 20.4556 91.041 20.4308C90.9794 20.3212 90.9615 20.2049 90.9437 20.0886C90.9262 19.9748 90.9087 19.861 90.8503 19.7537C90.8033 19.584 90.7562 19.4145 90.7091 19.2449C90.5702 18.7451 90.4314 18.2454 90.2963 17.7432C90.1692 17.2717 90.0458 16.7999 89.9224 16.3282ZM89.4247 17.7681C89.3931 17.6419 89.3614 17.5156 89.3309 17.3893C89.157 17.6816 89.0897 17.9824 89.0228 18.2811C88.9911 18.4228 88.9595 18.5641 88.9167 18.7037C88.8681 18.8696 89.0333 18.9273 89.2158 18.8925C89.2577 18.8847 89.3099 18.8851 89.3634 18.8855C89.515 18.8867 89.6766 18.888 89.6412 18.7003C89.5801 18.3884 89.5024 18.0782 89.4247 17.7681Z" fill="#3CB7C8"/>
<path fill-rule="evenodd" clip-rule="evenodd" d="M37.6173 19.5812C37.6607 19.0768 37.645 18.5661 37.4783 18.0678L37.4805 18.0751C37.3595 18.0524 37.2956 17.9845 37.2308 17.9156C37.1887 17.8708 37.1461 17.8256 37.0872 17.7921C36.7625 17.6099 36.408 17.6188 36.0525 17.6277C35.9947 17.6291 35.9368 17.6306 35.879 17.6312C35.6203 17.634 35.5231 17.5589 35.5276 17.3666C35.5316 17.1877 35.53 17.009 35.5284 16.8305C35.5261 16.5791 35.5238 16.3282 35.5373 16.0775C35.5508 15.8392 35.39 15.8191 35.15 15.8325C35.1104 15.8347 35.07 15.8341 35.0304 15.8335C34.8578 15.8308 34.7014 15.8283 34.7014 16.0618C34.7126 17.4793 34.7081 18.8974 34.7014 20.3155C34.7014 20.4837 34.7687 20.5492 35.0005 20.5436C35.4487 20.5234 35.8981 20.5234 36.3463 20.5436C37.2061 20.6019 37.5725 20.1092 37.6173 19.5812ZM35.6093 18.9546C35.6059 18.9919 35.6059 19.0294 35.6093 19.0667V19.4854C35.6093 19.5515 35.6093 19.6177 35.6908 19.6631C36.0116 19.8357 36.6351 19.6412 36.7017 19.3425C36.7199 19.2309 36.725 19.1184 36.7166 19.0062C36.7084 18.5942 36.5813 18.5286 35.9832 18.5062C35.5741 18.4892 35.5904 18.6465 35.607 18.8066C35.6123 18.8575 35.6176 18.9086 35.6093 18.9546Z" fill="#3CB6C8"/>
<circle cx="91.7576" cy="2.98513" r="1.88381" fill="#3CB7C8"/>
</svg>
