<svg width="62" height="15" viewBox="0 0 62 15" fill="none" xmlns="http://www.w3.org/2000/svg">
<path d="M5.35096 4.65137C4.32905 4.65137 3.34322 4.83308 2.58041 5.19551C1.85119 5.54481 0.557129 6.65985 0.557129 8.77534V14.6277H2.97434V9.32807C2.97434 9.05044 3.01494 8.2211 3.05102 8.00355C3.27104 6.92384 4.0539 6.66641 5.21414 6.66641C5.32991 6.66641 5.47024 6.67247 5.60907 6.68256L6.1719 4.71093C5.97393 4.66903 5.58852 4.65137 5.35096 4.65137Z" fill="black"/>
<path d="M52.4232 4.65137C51.4033 4.65137 50.4154 4.83308 49.6546 5.19551C48.9274 5.54532 47.6309 6.66035 47.6309 8.77585V14.6282H50.0466V9.32806C50.0466 9.05044 50.0862 8.2211 50.1253 8.00355C50.3423 6.92384 51.1296 6.66641 52.2874 6.66641C52.4036 6.66641 52.5415 6.67247 52.6853 6.68256L53.2441 4.71093C53.0462 4.66903 52.6623 4.65137 52.4232 4.65137Z" fill="#E83587"/>
<path d="M26.7384 6.73793C24.9737 6.04892 24.2024 5.57747 24.2024 4.55531C24.2024 3.78654 24.8695 2.96175 26.4036 2.96175C27.644 2.96175 28.5707 3.33578 29.0423 3.59069L29.6302 1.64177C28.9451 1.28944 27.8816 0.971436 26.4422 0.971436C23.5764 0.971436 21.7616 2.62506 21.7616 4.78901C21.7616 6.69654 23.1609 7.85751 25.3431 8.64546C27.0331 9.25522 27.7057 9.84278 27.7057 10.8483C27.7057 11.931 26.8356 12.6584 25.2845 12.6584C24.0445 12.6584 22.8682 12.2652 22.0794 11.8104L21.5471 13.8189C22.2783 14.2519 23.7293 14.6638 25.1256 14.6638C28.5502 14.6638 30.1615 12.7937 30.1615 10.6716C30.162 8.76105 29.0423 7.6026 26.7384 6.73793Z" fill="#E83587"/>
<path d="M35.1905 12.6803C34.2633 12.6803 33.95 12.071 33.952 10.908L33.95 6.6768L35.6276 6.68084L36.1423 4.87166H33.95V2.15234L31.5894 3.32447V11.1846C31.5894 12.4441 31.8264 13.3083 32.3367 13.8615C32.7877 14.3512 33.5406 14.6662 34.4217 14.6662C35.19 14.6662 35.8175 14.5491 36.1769 14.4112L36.1328 12.5622C35.8596 12.6399 35.6431 12.6803 35.1905 12.6803Z" fill="#E83587"/>
<path d="M10.5028 4.65137C7.43301 4.65137 5.82471 7.15048 5.82471 9.80356C5.82471 12.7363 7.65654 14.664 10.7574 14.664C12.1341 14.664 13.2758 14.3889 14.0968 14.0562L13.7429 12.3834C13.0187 12.659 12.2113 12.815 11.0902 12.815C9.55954 12.815 8.20333 12.0695 8.14219 10.3346H14.5518C14.5884 10.1185 14.6255 9.76772 14.6255 9.31544C14.6255 7.20853 13.6287 4.65137 10.5028 4.65137ZM8.14219 8.64511C8.24493 7.66232 8.87241 6.30398 10.3674 6.30398C11.9762 6.30398 12.3667 7.75772 12.3466 8.64259L8.14219 8.64511Z" fill="black"/>
<path d="M61.7009 9.31544C61.7009 7.20853 60.697 4.65137 57.5711 4.65137C54.5064 4.65137 52.8926 7.15048 52.8926 9.80356C52.8926 12.7363 54.7244 14.664 57.8277 14.664C59.2045 14.664 60.3462 14.3889 61.1716 14.0562L60.8158 12.3834C60.0921 12.659 59.2852 12.815 58.163 12.815C56.6284 12.815 55.2722 12.0695 55.2156 10.3346H61.6242C61.6608 10.118 61.7009 9.76772 61.7009 9.31544ZM55.2141 8.64511C55.3128 7.66232 55.9428 6.30398 57.4383 6.30398C59.0521 6.30398 59.4401 7.75772 59.421 8.64259L55.2141 8.64511Z" fill="#E83587"/>
<path d="M41.6963 4.65137C38.8049 4.65137 36.738 6.57959 36.738 9.72481C36.738 12.7938 38.8265 14.664 41.5364 14.664C43.9767 14.664 46.449 13.0921 46.449 9.57086C46.449 6.65934 44.547 4.65137 41.6963 4.65137ZM41.6176 12.9114C40.1416 12.9114 39.2364 11.5178 39.2364 9.66878C39.2364 8.07371 39.9251 6.42563 41.6376 6.42563C43.2875 6.42563 43.9556 8.13176 43.9556 9.62739C43.9556 11.5556 42.9928 12.9114 41.6176 12.9114Z" fill="#E83587"/>
<path d="M18.0148 4.927C17.1488 4.927 16.521 5.57649 16.521 6.48103C16.521 7.36688 17.1273 8.01485 17.9943 8.01485H18.0148C18.919 8.01485 19.5087 7.36688 19.5087 6.48103C19.4881 5.57649 18.8999 4.927 18.0148 4.927Z" fill="black"/>
<path d="M18.0148 11.3616C17.1488 11.3616 16.521 12.0131 16.521 12.9171C16.521 13.7838 17.1273 14.4519 17.9943 14.4519H18.0148C18.919 14.4519 19.5087 13.7838 19.5087 12.9171C19.4881 11.9934 18.8984 11.3616 18.0148 11.3616Z" fill="black"/>
</svg>
