<svg width="260" height="91" viewBox="0 0 260 91" fill="none" xmlns="http://www.w3.org/2000/svg">
<rect y="0.250977" width="260" height="90" rx="5" fill="white"/>
<path fill-rule="evenodd" clip-rule="evenodd" d="M71.1883 38.3403C73.2555 38.3403 74.9313 36.6803 74.9313 34.6325C74.9313 32.5848 73.2555 30.9248 71.1883 30.9248C69.1211 30.9248 67.4453 32.5848 67.4453 34.6325C67.4453 36.6803 69.1211 38.3403 71.1883 38.3403ZM67.8857 61.328H74.1535V40.5658H67.8857V61.328ZM79.6352 52.2069H90.4901V47.8289H79.6352V52.2069ZM95.179 53.4096V59.747C96.3374 60.3166 97.572 60.717 98.8448 60.936C100.313 61.2037 101.804 61.3349 103.297 61.328C104.753 61.3359 106.207 61.1909 107.633 60.8956C108.914 60.6428 110.136 60.1548 111.238 59.4565C112.261 58.8052 113.104 57.9086 113.691 56.8486C114.329 55.6165 114.639 54.2416 114.592 52.8556C114.615 51.8276 114.44 50.8048 114.077 49.8423C113.736 48.9826 113.23 48.1977 112.586 47.5317C111.896 46.8249 111.112 46.2156 110.255 45.7209C109.271 45.1468 108.247 44.6411 107.193 44.2074C106.359 43.8629 105.607 43.5318 104.95 43.2075C104.36 42.9246 103.793 42.5947 103.256 42.2211C102.839 41.9284 102.476 41.5648 102.185 41.1469C101.934 40.7689 101.804 40.3235 101.813 39.8699C101.807 39.4543 101.922 39.0458 102.145 38.6943C102.392 38.3277 102.719 38.0207 103.1 37.7957C103.57 37.5229 104.08 37.3246 104.611 37.208C105.263 37.0667 105.929 36.9987 106.596 37.0052C107.156 37.0086 107.715 37.0469 108.27 37.1201C108.869 37.2027 109.462 37.3246 110.045 37.4849C110.64 37.6529 111.222 37.8628 111.787 38.1132C112.332 38.355 112.854 38.6468 113.345 38.9848V33.0663C112.321 32.6791 111.258 32.4028 110.174 32.242C108.87 32.055 107.554 31.9669 106.237 31.9785C104.794 31.9686 103.354 32.1297 101.948 32.4582C100.68 32.7498 99.4736 33.2621 98.384 33.9716C97.3749 34.6421 96.5409 35.5432 95.9514 36.5999C95.3305 37.7723 95.0247 39.0851 95.0638 40.4105C95.0167 42.1608 95.5955 43.8707 96.6969 45.2345C98.0497 46.7541 99.7581 47.9169 101.67 48.6193C102.544 48.9774 103.357 49.3287 104.11 49.6733C104.793 49.9711 105.448 50.3284 106.068 50.7408C106.569 51.0653 107.009 51.4746 107.369 51.9501C107.685 52.3784 107.851 52.8982 107.843 53.4298C107.848 53.8302 107.745 54.2246 107.545 54.5716C107.325 54.9452 107.015 55.2585 106.644 55.4837C106.176 55.7635 105.666 55.9666 105.133 56.085C104.439 56.2377 103.729 56.3103 103.019 56.3012C100.146 56.2876 97.3694 55.2636 95.179 53.4096ZM125.752 61.328C127.185 61.4101 128.619 61.1603 129.939 60.5983L129.939 55.9635C129.318 56.3262 128.613 56.5239 127.893 56.5378C126.213 56.54 125.372 55.4838 125.372 53.3691V45.1804H129.939V40.5658H125.372V34.4108L119.118 36.1944V40.5658H115.825V45.1804H119.118V54.4636C119.123 59.0399 121.334 61.328 125.752 61.328ZM138.722 60.7133C140.094 61.2006 141.549 61.4096 143.003 61.328C144.486 61.4102 145.971 61.1935 147.368 60.6909C148.765 60.1882 150.046 59.4099 151.134 58.4025C152.149 57.3449 152.936 56.0913 153.446 54.7191C153.957 53.3468 154.18 51.8849 154.102 50.4233C154.164 49.0411 153.94 47.6611 153.445 46.3687C152.949 45.0763 152.193 43.8992 151.223 42.9102C150.157 41.9302 148.905 41.174 147.541 40.6865C146.177 40.1989 144.728 39.9902 143.281 40.0726C140.294 39.9151 137.364 40.9342 135.123 42.9102C134.092 43.9361 133.291 45.1677 132.771 46.5243C132.251 47.8808 132.025 49.3316 132.108 50.7814C132.034 52.1966 132.255 53.6117 132.755 54.9382C133.255 56.2646 134.024 57.4739 135.015 58.4904C136.089 59.4702 137.35 60.226 138.722 60.7133ZM141.257 45.2125C141.857 44.9484 142.511 44.8287 143.166 44.8628C146.197 44.8605 147.713 46.7546 147.713 50.5449C147.71 54.5402 146.208 56.5378 143.207 56.5378C140.054 56.5378 138.477 54.592 138.477 50.7003C138.382 49.163 138.817 47.6394 139.71 46.383C140.127 45.8775 140.656 45.4765 141.257 45.2125ZM168.792 46.0858C169.711 46.0647 170.62 46.2762 171.435 46.7006L171.435 40.9375C170.938 40.7602 170.411 40.6799 169.883 40.701C168.654 40.6809 167.454 41.0777 166.48 41.8265C165.506 42.5753 164.817 43.6316 164.524 44.8224H164.442V41.0591H158.175V61.328H164.442V51.6462C164.364 50.2006 164.769 48.7701 165.594 47.5789C165.968 47.0919 166.453 46.7019 167.01 46.442C167.567 46.1821 168.178 46.0599 168.792 46.0858ZM179.2 52.484H192.461V49.849C192.601 47.2432 191.729 44.6836 190.028 42.7009C189.136 41.7987 188.061 41.0974 186.875 40.6441C185.688 40.1907 184.419 39.9959 183.151 40.0726C181.808 40.0428 180.474 40.2889 179.231 40.7957C177.989 41.3026 176.864 42.0591 175.927 43.0184C174.92 44.0842 174.14 45.3427 173.635 46.7176C173.13 48.0926 172.909 49.5554 172.987 51.0178C172.904 52.3997 173.102 53.784 173.569 55.0877C174.036 56.3915 174.762 57.5878 175.704 58.6052C176.727 59.5511 177.932 60.2801 179.245 60.7482C180.559 61.2162 181.955 61.4135 183.347 61.328C185.875 61.4313 188.389 60.9163 190.672 59.8281V55.3149C188.898 56.3909 186.853 56.9393 184.777 56.8959C181.269 56.8936 179.41 55.423 179.2 52.484ZM183.11 44.2885C185.468 44.2907 186.647 45.7411 186.647 48.6395H179.16C179.279 47.4916 179.747 46.4073 180.501 45.5316C180.816 45.1443 181.214 44.8317 181.665 44.6167C182.116 44.4017 182.61 44.2896 183.11 44.2885Z" fill="#404040"/>
</svg>
