<svg width="148" height="29" viewBox="0 0 148 29" fill="none" xmlns="http://www.w3.org/2000/svg">
<path fill-rule="evenodd" clip-rule="evenodd" d="M105.179 0.223369C103.618 0.733282 102.655 2.03052 102.662 3.61594C102.67 5.54713 104.311 7.11608 106.322 7.11608C106.655 7.11608 107.021 7.09374 107.134 7.06643C107.316 7.0228 107.379 7.0739 107.651 7.48371C107.822 7.74055 108.043 8.0501 108.144 8.1715C108.324 8.38921 108.324 8.39395 108.163 8.51173C107.792 8.78368 106.273 9.44552 105.592 9.63206C105.189 9.74221 104.478 9.86995 104.011 9.91582C103.455 9.97045 97.761 9.99937 87.5745 9.99937H71.9878V10.6823V11.3651H109.467H146.947V10.6848V10.0044L130.828 9.9768C113.247 9.94667 114.403 9.97704 112.908 9.50738C112.345 9.33071 110.978 8.71563 110.688 8.5086C110.527 8.39395 110.528 8.38913 110.707 8.1715C110.807 8.0501 111.032 7.74313 111.206 7.48941C111.506 7.0506 111.536 7.03036 111.805 7.07326C113.579 7.35565 115.197 6.55989 115.952 5.0328C116.202 4.52706 116.217 4.44287 116.217 3.57223C116.217 2.7016 116.202 2.6174 115.952 2.11166C115.486 1.16904 114.684 0.494594 113.676 0.196054C112.294 -0.212793 110.743 0.198384 109.802 1.22271L109.467 1.58641L109.133 1.22271C108.17 0.173639 106.57 -0.230709 105.179 0.223369ZM15.6844 0.441651C11.6172 1.26095 8.58969 4.17429 7.7622 8.06505C7.66921 8.50209 7.59316 9.11612 7.59316 9.42953V9.99937H4.2812H0.969238V10.6824V11.3655L18.7239 11.3452L36.4785 11.325L36.5028 10.6622L36.5272 9.99937H32.1792H27.8313L27.7327 9.09323C27.6209 8.06585 27.3996 7.18196 27.0343 6.30377C25.7667 3.25618 22.8175 0.966427 19.4256 0.39642C18.4292 0.228993 16.6323 0.250684 15.6844 0.441651ZM107.356 2.02088C107.589 2.15874 107.846 2.40844 107.998 2.64415C108.623 3.61296 108.068 5.04332 106.952 5.3409C105.661 5.68499 104.444 4.83677 104.438 3.58975C104.435 2.84139 104.836 2.24358 105.565 1.90945C106.133 1.64915 106.798 1.69052 107.356 2.02088ZM113.473 1.95629C114.627 2.52003 114.848 4.05258 113.901 4.91382C112.918 5.80751 111.352 5.48728 110.811 4.28187C110.109 2.71943 111.877 1.17579 113.473 1.95629ZM19.6818 2.19473C21.1839 2.57466 22.4513 3.26542 23.5314 4.2928C24.9583 5.65005 25.8089 7.40916 25.9311 9.25624L25.9803 9.99937H17.6546H9.32888L9.38112 9.2964C9.45683 8.27971 9.70771 7.42932 10.2284 6.42428C11.0621 4.81524 12.2541 3.65121 13.8817 2.85665C15.3369 2.14629 16.2386 1.95444 17.9064 2.00063C18.6848 2.02217 19.2393 2.08282 19.6818 2.19473ZM109.869 5.99141C110.063 6.19515 110.222 6.38828 110.222 6.4205C110.222 6.52719 109.529 7.42852 109.446 7.42852C109.353 7.42852 109.085 7.11985 108.826 6.71334L108.645 6.4307L109.035 6.01045C109.25 5.77939 109.446 5.59718 109.471 5.60554C109.495 5.61397 109.675 5.78759 109.869 5.99141ZM109.945 9.65793L110.419 9.9592L109.947 9.98323C109.687 9.9964 109.24 9.9964 108.953 9.98323L108.432 9.9592L108.887 9.66299C109.137 9.50007 109.371 9.36445 109.406 9.36172C109.441 9.35891 109.684 9.49227 109.945 9.65793ZM30.0642 14.7949C28.4367 15.0559 26.7953 16.3062 26.3057 17.6576C25.9878 18.5349 25.9192 19.2379 25.92 21.6084C25.9211 24.891 26.1355 25.7845 27.1815 26.8671C27.7854 27.492 28.429 27.8917 29.3059 28.1862C29.9424 28.3999 30.1345 28.4273 31.0284 28.4319C32.2059 28.4381 32.6932 28.3402 33.6454 27.906C34.4862 27.5227 35.3364 26.7565 35.7472 26.0121C36.239 25.121 36.3647 24.469 36.4145 22.5524L36.4587 20.8452H33.7645H31.0704V21.9298V23.0143H32.382H33.6936L33.6483 23.6468C33.5424 25.1278 32.7252 25.9732 31.3251 26.0502C30.9775 26.0693 30.5342 26.0438 30.3402 25.9936C29.8138 25.8572 29.305 25.4443 29.0311 24.9311C28.8097 24.5162 28.7865 24.382 28.7029 23.0276C28.5979 21.3258 28.7097 19.115 28.9318 18.5047C29.2578 17.6081 30.0504 17.1221 31.1795 17.1261C31.7329 17.128 31.9068 17.1642 32.3079 17.3608C32.8515 17.6272 33.2569 18.0842 33.4775 18.6796L33.6251 19.0777H34.989H36.3527V18.8915C36.3527 18.789 36.2919 18.5089 36.2176 18.2689C35.6742 16.5157 34.2485 15.2255 32.4514 14.8608C31.9144 14.7518 30.5651 14.7146 30.0642 14.7949ZM51.7301 14.8871C50.7447 15.1653 49.9451 15.7922 49.584 16.5695C49.3643 17.0426 49.279 18.2644 49.4333 18.7273C49.6024 19.2346 49.9111 19.7819 50.3036 20.2708L50.6727 20.7304L50.0297 21.2147C48.5134 22.3568 47.9251 23.7684 48.2868 25.397C48.7128 27.3154 50.0644 28.3061 52.4531 28.4511C53.8092 28.5332 55.0776 28.1985 56.0357 27.5054L56.4827 27.182L56.6449 27.3678C56.7342 27.47 56.9496 27.7237 57.1238 27.9319L57.4403 28.3103L59.1041 28.3135L60.7679 28.3167L60.4037 27.8996C60.2034 27.6702 59.6681 27.0646 59.2142 26.5539C58.7601 26.0432 58.3713 25.5848 58.3498 25.5351C58.3284 25.4856 58.4606 25.2404 58.6434 24.9903C58.8262 24.7402 59.0724 24.3044 59.1904 24.022C59.4346 23.4376 59.7461 22.0662 59.7461 21.5757V21.2469H58.5441H57.3423L57.2124 22.0084C57.0886 22.7344 56.7813 23.5088 56.6018 23.5473C56.5152 23.5659 54.338 21.1086 54.338 20.9924C54.338 20.9564 54.6768 20.6827 55.0909 20.384C56.3189 19.4983 56.6969 18.87 56.6743 17.7521C56.6486 16.4851 55.8352 15.4034 54.5768 14.9628C53.8907 14.7226 52.4484 14.6842 51.7301 14.8871ZM0.969238 21.5665V28.3247L4.5537 28.3005C8.10824 28.2765 8.14236 28.2746 8.64125 28.0842C10.1539 27.5069 10.9647 26.4794 11.1521 24.9023C11.2256 24.2839 11.0815 23.4282 10.812 22.8823C10.5856 22.4238 9.99253 21.8002 9.59627 21.6038C9.46296 21.5378 9.35538 21.4576 9.35714 21.4255C9.3589 21.3936 9.50848 21.2692 9.68968 21.1492C10.4543 20.6426 10.9471 19.6423 10.9471 18.597C10.9471 16.7868 10.0258 15.5939 8.18009 15.0142C7.77427 14.8867 7.31395 14.8657 4.34409 14.8389L0.969238 14.8084V21.5665ZM14.9927 21.5085C13.5976 25.1867 12.4563 28.2242 12.4563 28.2584C12.4563 28.2925 13.104 28.3106 13.8957 28.2986L15.3351 28.2766L15.7264 27.1518L16.1177 26.0271L18.6278 26.0058L21.138 25.9846L21.5405 27.1507L21.9429 28.3167H23.4093C24.2157 28.3167 24.8566 28.2874 24.8335 28.2515C24.8103 28.2156 23.6585 25.2134 22.2739 21.5798C20.8892 17.9462 19.7341 14.9388 19.7068 14.8965C19.6795 14.8542 19.18 14.82 18.5932 14.8202L17.5291 14.8207L14.9927 21.5085ZM71.9039 14.9042C71.9039 14.9505 72.734 17.9658 73.7486 21.6048C74.7631 25.2437 75.5932 28.2435 75.5932 28.2711C75.5932 28.2986 76.1276 28.3111 76.7806 28.2988L77.9679 28.2766L79.2312 24.2819C79.926 22.0848 80.5178 20.3133 80.5463 20.3452C80.5748 20.3772 81.1592 22.1848 81.8449 24.3621L83.0916 28.3209L84.2646 28.2987L85.4376 28.2766L87.2618 21.7691C88.265 18.19 89.1095 15.1613 89.1383 15.0387L89.1906 14.8159L87.743 14.8379L86.2954 14.8599L85.2066 19.0777C84.3099 22.552 84.1056 23.253 84.0479 23.0545C84.0093 22.9219 83.436 21.0239 82.7739 18.8367L81.5699 14.8599L80.5295 14.8376L79.4891 14.8152L78.2382 18.9595C77.5502 21.2388 76.965 23.1169 76.9379 23.133C76.9106 23.1491 76.4401 21.4027 75.8922 19.2521C75.3444 17.1015 74.8625 15.2244 74.8215 15.0808L74.7469 14.8197H73.3254C72.388 14.8197 71.9039 14.8485 71.9039 14.9042ZM90.8713 21.5058C89.4761 25.1855 88.3353 28.2233 88.3363 28.2565C88.3372 28.2897 88.9753 28.3167 89.7543 28.3167H91.1707L91.5892 27.1719L92.0077 26.0271L94.5137 26.0058L97.0197 25.9846L97.4221 27.1507L97.8245 28.3167H99.2441C100.327 28.3167 100.662 28.2929 100.658 28.2163C100.655 28.1611 99.513 25.1333 98.1199 21.4879L95.5869 14.8599L94.4975 14.8376L93.4081 14.8153L90.8713 21.5058ZM102.844 21.5682V28.3167H107.413H111.983V27.1518V25.9869H108.797H105.61V20.4033V14.8197H104.227H102.844V21.5682ZM114.414 21.5682V28.3167H118.984H123.554V27.1518V25.9869H120.368H117.181V20.4033V14.8197H115.798H114.414V21.5682ZM125.79 14.8733C125.759 14.9027 125.734 17.9395 125.734 21.6218V28.3167H130.387H135.041V27.1518V25.9869H131.813H128.585V24.3399V22.693H131.352H134.119V21.5281V20.3631H131.352H128.585V18.7965V17.2299H131.813H135.041V16.0248V14.8197H130.443C127.915 14.8197 125.82 14.8438 125.79 14.8733ZM136.885 16.0248V17.2299H138.73H140.575V22.7733V28.3167H141.958H143.342V22.7733V17.2299H145.186H147.031V16.0248V14.8197H141.958H136.885V16.0248ZM53.7241 16.9966C53.9829 17.1292 54.2115 17.5627 54.2118 17.921C54.2123 18.351 53.9649 18.6932 53.357 19.1032C52.8002 19.4788 52.8006 19.4789 52.2839 18.7375C52.0242 18.3649 51.9483 18.179 51.9483 17.9155C51.9483 17.4791 52.2327 17.0629 52.622 16.9296C52.9277 16.8249 53.4514 16.8567 53.7241 16.9966ZM7.20042 17.3463C7.61823 17.4891 7.83364 17.6796 8.02238 18.0735C8.32507 18.705 8.13456 19.596 7.62394 19.937C7.17628 20.236 6.85824 20.2828 5.27487 20.2828H3.73619V18.7564V17.2299L5.30833 17.2334C6.41352 17.2359 6.97555 17.2694 7.20042 17.3463ZM20.3379 23.6761C20.3379 23.7098 19.5833 23.7374 18.661 23.7374C17.4643 23.7374 16.984 23.7112 16.984 23.646C16.984 23.5728 18.3889 19.6404 18.6289 19.0419C18.6738 18.9298 18.925 19.5561 19.5147 21.2502C19.9675 22.5507 20.3379 23.6424 20.3379 23.6761ZM96.2196 23.6761C96.2196 23.7098 95.465 23.7374 94.5427 23.7374C93.2312 23.7374 92.8657 23.7148 92.8657 23.634C92.8657 23.5534 94.2921 19.5383 94.5128 18.9974C94.5528 18.8995 96.2196 23.4687 96.2196 23.6761ZM52.8706 23.117C53.2626 23.5647 53.8812 24.2684 54.2451 24.6807C55.0055 25.542 55.0158 25.4768 54.0494 25.9261C53.5851 26.1419 53.4201 26.1765 52.8755 26.1723C51.9267 26.1651 51.2954 25.836 50.9206 25.1533C50.6696 24.6959 50.669 23.9046 50.9194 23.4484C51.0854 23.1461 51.9713 22.2835 52.1018 22.2971C52.1327 22.3004 52.4786 22.6694 52.8706 23.117ZM7.26624 22.7856C7.99739 23.0233 8.34779 23.5111 8.34779 24.2913C8.34779 24.86 8.24944 25.1426 7.94415 25.4517C7.48433 25.9175 7.36451 25.9428 5.47602 25.9731L3.73619 26.0009V24.3469V22.693H5.35872C6.36321 22.693 7.08975 22.7283 7.26624 22.7856Z" fill="#404040"/>
</svg>
