<svg width="80" height="20" viewBox="0 0 80 20" fill="none" xmlns="http://www.w3.org/2000/svg">
<path d="M32.3829 16.5471C31.0148 18.2518 29.2362 19.098 27.0099 19.098C26.0771 19.098 25.2314 18.9362 24.4603 18.6251C23.6891 18.314 23.0299 17.8785 22.4827 17.3186C21.9355 16.7586 21.5001 16.0991 21.2016 15.3276C20.8907 14.5561 20.7415 13.7099 20.7415 12.7766C20.7415 11.8558 20.8907 11.0096 21.1892 10.2381C21.4877 9.45419 21.923 8.78223 22.4703 8.20983C23.0299 7.63742 23.6891 7.18945 24.4603 6.86592C25.2314 6.54238 26.0771 6.38062 27.0099 6.38062C28.0547 6.38062 29.0248 6.55483 29.9203 6.90325C30.8158 7.25167 31.562 7.86141 32.1839 8.73246L30.0695 10.8728C29.7337 10.4123 29.3233 10.0515 28.8631 9.76528C28.3905 9.49152 27.8557 9.35464 27.2587 9.35464C26.7487 9.35464 26.301 9.44175 25.903 9.60351C25.505 9.77772 25.1692 10.0017 24.8956 10.3128C24.6219 10.6114 24.4105 10.9723 24.2737 11.3705C24.1244 11.7687 24.0623 12.2167 24.0623 12.6771C24.0623 13.1624 24.1369 13.6104 24.2861 14.021C24.4354 14.4316 24.6468 14.7925 24.9329 15.0911C25.2065 15.3898 25.5423 15.6262 25.9403 15.8004C26.3259 15.9746 26.7736 16.0493 27.2462 16.0493C27.9427 16.0493 28.5149 15.9249 28.9502 15.676C29.3855 15.4271 29.8208 15.0414 30.2437 14.5063L32.3829 16.5471Z" fill="#404040"/>
<path d="M39.0361 19.0724C38.1281 19.0724 37.2948 18.9106 36.5361 18.5871C35.765 18.2636 35.1058 17.828 34.5461 17.2681C33.9864 16.7081 33.5511 16.0362 33.2402 15.2646C32.9293 14.4807 32.7676 13.6345 32.7676 12.7261C32.7676 11.8053 32.9293 10.9592 33.2402 10.1876C33.5511 9.4037 33.9864 8.74419 34.5461 8.18422C35.1058 7.62426 35.765 7.18873 36.5361 6.87764C37.3072 6.56655 38.1406 6.40479 39.0361 6.40479C39.944 6.40479 40.7773 6.56655 41.5484 6.87764C42.3195 7.18873 42.9787 7.62426 43.5384 8.18422C44.0981 8.74419 44.521 9.41614 44.8443 10.1876C45.1553 10.9716 45.317 11.8178 45.317 12.7261C45.317 13.647 45.1553 14.4931 44.8443 15.2646C44.5334 16.0486 44.0981 16.7081 43.5384 17.2681C42.9787 17.828 42.3195 18.2636 41.5484 18.5871C40.7773 18.9231 39.9316 19.0724 39.0361 19.0724ZM39.0361 16.0735C39.5087 16.0735 39.9191 15.9864 40.2922 15.8122C40.6654 15.638 40.9763 15.4015 41.225 15.1029C41.4738 14.8042 41.6728 14.4434 41.8096 14.0327C41.9464 13.6221 42.0086 13.1866 42.0086 12.7261C42.0086 12.2657 41.9464 11.8302 41.8096 11.4196C41.6728 11.0089 41.4862 10.6481 41.225 10.3494C40.9763 10.0508 40.6654 9.81434 40.2922 9.64013C39.9191 9.46592 39.5087 9.37881 39.0361 9.37881C38.5634 9.37881 38.153 9.46592 37.7799 9.64013C37.4067 9.81434 37.0958 10.0508 36.8471 10.3494C36.5983 10.6481 36.3993 11.0089 36.2625 11.4196C36.1257 11.8302 36.0635 12.2657 36.0635 12.7261C36.0635 13.1866 36.1257 13.6221 36.2625 14.0327C36.3993 14.4434 36.5859 14.8042 36.8471 15.1029C37.0958 15.4015 37.4067 15.638 37.7799 15.8122C38.1406 15.9864 38.5634 16.0735 39.0361 16.0735Z" fill="#404040"/>
<path d="M45.3782 6.71582H48.8731L51.5845 15.1153L54.1093 6.71582H57.5296L53.1391 18.7861H49.7562L45.3782 6.71582Z" fill="#404040"/>
<path d="M58.7974 6.71582H67.4787V9.49075H61.9938V11.3573H66.4961V13.958H61.9938V16.0237H67.8518V18.7861H58.7974V6.71582Z" fill="#404040"/>
<path d="M69.5176 6.71582H74.505C75.1517 6.71582 75.7487 6.80293 76.2711 6.96469C76.7935 7.1389 77.2412 7.38778 77.6144 7.71131C77.9875 8.04729 78.2735 8.45793 78.485 8.95567C78.684 9.45342 78.7959 10.0258 78.7959 10.6729C78.7959 11.4693 78.6218 12.1537 78.2735 12.7385C77.9253 13.3234 77.4651 13.7962 76.8805 14.1447L79.4675 18.7737H76.0348L73.9951 14.6673H72.6518V18.7737H69.53V6.71582H69.5176ZM74.1941 12.1661C74.6169 12.1661 74.9652 12.0417 75.2264 11.7804C75.4876 11.5191 75.6244 11.1706 75.6244 10.7351C75.6244 10.2747 75.5 9.91383 75.2388 9.65251C74.9901 9.3912 74.6294 9.25432 74.1692 9.25432H72.6269V12.1661H74.1941Z" fill="#404040"/>
<path d="M19.0387 0.582031H15.8416V3.7807H19.0387V0.582031Z" fill="#00B3E0"/>
<path d="M9.69845 6.71582H0.805664V9.92627H7.43483L2.08672 15.277L4.35034 17.5418L9.69845 12.1786V18.8235H12.8949V9.92627V6.71582H9.69845Z" fill="#00B3E0"/>
</svg>
