<svg width="109" height="11" viewBox="0 0 109 11" fill="none" xmlns="http://www.w3.org/2000/svg">
<path fill-rule="evenodd" clip-rule="evenodd" d="M10.1082 2.56011L10.0739 1.63193L10.0395 0.703631L5.13621 0.672273C2.43955 0.655091 0.197083 0.677559 0.15309 0.722376C0.109215 0.767073 0.0732422 1.1989 0.0732422 1.68192V2.56023L2.0488 2.59316C3.70331 2.62067 4.02695 2.6554 4.04028 2.80631C4.04901 2.90543 4.06222 4.78655 4.06976 6.98643L4.08333 10.9864L5.05636 10.9515L6.0294 10.9166L6.08837 6.77135L6.14734 2.62608L8.12786 2.59316L10.1082 2.56011ZM21.0862 1.87512C21.1083 1.49508 21.1092 1.06265 21.0885 0.913899L21.0508 0.643555L17.4322 0.646198C14.1873 0.648601 13.7649 0.671429 13.3408 0.867639C12.7463 1.14279 12.1536 1.82189 11.9926 2.41257C11.8279 3.01681 11.8299 8.61066 11.9951 9.21659C12.1754 9.87863 12.9828 10.6612 13.6661 10.8364C14.0207 10.9273 15.4184 10.9767 17.6401 10.9767H21.0672L21.082 10.2558C21.0901 9.85928 21.1033 9.44019 21.1115 9.3246C21.1251 9.12984 20.8612 9.10989 17.5289 9.05426L13.9316 8.99418L13.8979 7.82498L13.8642 6.65564L16.6106 6.62345L19.357 6.59112V5.68998V4.78883L16.6148 4.75663L13.8727 4.72431V3.64521V2.566H17.4594H21.0462L21.0862 1.87512ZM27.032 2.68892C26.2584 1.66305 25.5684 0.784015 25.4987 0.735473C25.3503 0.632022 23.1902 0.610752 23.1902 0.712761C23.1902 0.75085 24.0166 1.89146 25.0266 3.24751C26.0367 4.60355 26.8388 5.77541 26.8092 5.8517C26.7797 5.928 25.9555 7.06717 24.9779 8.38321C24.0002 9.69936 23.2277 10.8212 23.2612 10.8764C23.331 10.9916 25.0811 11.0138 25.364 10.9032C25.4676 10.8627 26.2228 9.94351 27.0424 8.86057C27.8621 7.77763 28.5476 6.89151 28.5658 6.89151C28.5841 6.89151 29.2208 7.71612 29.9805 8.72384C30.7401 9.73156 31.4663 10.6509 31.5941 10.7664C31.7782 10.9332 32.0433 10.9767 32.8747 10.9767C33.4513 10.9767 33.9231 10.9284 33.9231 10.8695C33.9231 10.8105 33.0983 9.64709 32.0902 8.28408C30.8621 6.62369 30.2882 5.75342 30.3506 5.64672C30.4019 5.55913 31.2265 4.43546 32.1834 3.1497C33.1403 1.86395 33.9231 0.772119 33.9231 0.723457C33.9231 0.674675 33.4063 0.650282 32.7744 0.669266L31.6259 0.703631L30.1129 2.68615C29.2808 3.77654 28.5637 4.64285 28.5194 4.61137C28.475 4.57989 27.8057 3.71478 27.032 2.68892ZM38.4049 4.72875V2.68615V0.643555H37.4011H36.3974L36.4281 5.78009L36.4589 10.9166L37.4319 10.9515L38.4049 10.9864V8.87884V6.77135H41.2917H44.1786L44.2108 8.84399L44.2432 10.9166H45.1867H46.1303L46.161 5.78009L46.1917 0.643555H45.188H44.1842V2.68615V4.72875H41.2946H38.4049ZM72.1335 2.43311C71.9738 1.82911 71.3845 1.14663 70.7816 0.867639C70.3634 0.674193 69.9526 0.648481 67.2312 0.646198C64.2347 0.643675 64.1401 0.650884 63.6339 0.92315C63.348 1.07683 62.9549 1.43296 62.7603 1.71436L62.4065 2.22597V6.5713V10.9166H63.35H64.2936L64.3247 6.83756C64.3482 3.75768 64.3915 2.7353 64.5016 2.66405C64.7519 2.50208 69.9459 2.54486 70.1082 2.71019C70.2127 2.81664 70.2497 3.91808 70.2497 6.92034V10.9864L71.2228 10.9515L72.1958 10.9166L72.227 6.91037C72.2465 4.37394 72.2123 2.73133 72.1335 2.43311ZM82.5131 2.08539C82.237 1.53629 81.7386 1.06241 81.1928 0.830153C80.6203 0.586483 79.0626 0.589365 78.5058 0.835078C77.9803 1.06697 77.4815 1.54855 77.2105 2.08539C76.985 2.53224 74.3778 10.5806 74.3778 10.8298C74.3778 10.9332 74.6545 10.9767 75.3137 10.9767H76.2495L76.6362 9.77518L77.0227 8.57365H79.8622H82.7017L83.0882 9.77518L83.4748 10.9767H84.4107C85.1347 10.9767 85.3465 10.9386 85.3465 10.8083C85.3465 10.5481 82.7519 2.56059 82.5131 2.08539ZM96.1384 1.714C95.9438 1.43272 95.5507 1.07683 95.2648 0.92315C94.7635 0.653527 94.6475 0.643675 92.0213 0.646198C89.6422 0.648481 89.2379 0.676475 88.8248 0.867639C88.2804 1.1196 87.6321 1.81997 87.5007 2.29782C87.4511 2.47841 87.4106 4.49145 87.4106 6.77135V10.9166H88.3541H89.2977L89.3308 9.44476L89.3639 7.97288H92.1967C95.2982 7.97288 95.4271 7.94849 96.0032 7.25088C96.489 6.66273 96.5732 6.16134 96.531 4.1078C96.4925 2.23762 96.4899 2.22188 96.1384 1.714ZM100.797 4.84891V2.74623V0.643555H99.85C99.2007 0.643555 98.8848 0.690776 98.846 0.793867C98.8149 0.876412 98.8033 3.18791 98.8203 5.9304L98.8511 10.9166H99.7946H100.738L100.771 8.84399L100.803 6.77135L101.714 6.77376L102.625 6.77604L104.277 8.81756C105.185 9.94027 106.034 10.888 106.165 10.9237C106.554 11.0298 108.146 10.9266 108.19 10.7925C108.212 10.7243 107.279 9.50772 106.117 8.08907C104.341 5.92079 104.028 5.48103 104.152 5.32952L106.027 3.03027C106.978 1.86479 107.756 0.848895 107.756 0.772838C107.756 0.675995 107.429 0.644877 106.665 0.669028L105.574 0.703631L103.872 2.77627L102.171 4.84891H101.484H100.797ZM78.2203 4.84542C78.5701 3.73857 78.8589 3.0364 79.0405 2.85149C79.254 2.63389 79.4494 2.566 79.8622 2.566C80.6731 2.566 80.87 2.83923 81.5041 4.84542C81.8012 5.78514 82.0441 6.6029 82.0441 6.66274C82.0441 6.72353 81.0844 6.77135 79.8622 6.77135C78.6399 6.77135 77.6802 6.72353 77.6802 6.66274C77.6802 6.6029 77.9232 5.78514 78.2203 4.84542ZM89.3566 4.39064C89.3566 3.4752 89.392 2.69012 89.4353 2.64614C89.4785 2.60205 90.6452 2.566 92.0278 2.566C93.6218 2.566 94.2713 2.5013 94.5233 2.78709C94.7387 3.03146 94.6634 3.53209 94.6393 4.54852L94.6051 5.99036L91.9809 6.02268L89.3566 6.055V4.39064Z" fill="#1C1E34"/>
<path d="M49.7644 9.46439C49.7644 9.41758 49.8017 9.37964 49.8476 9.37964H58.4168C58.4627 9.37964 58.4999 9.41758 58.4999 9.46439V10.8676C58.4999 10.9144 58.4627 10.9523 58.4168 10.9523H49.8476C49.8017 10.9523 49.7644 10.9144 49.7644 10.8676V9.46439Z" fill="#0193C6"/>
<path fill-rule="evenodd" clip-rule="evenodd" d="M51.7193 0.679932C50.6395 0.679932 49.7642 1.57165 49.7642 2.67165V6.10503C49.7642 7.20503 50.6395 8.09675 51.7193 8.09675H56.5446C57.6244 8.09675 58.4997 7.20503 58.4997 6.10503V2.67165C58.4997 1.57165 57.6244 0.679932 56.5446 0.679932H51.7193ZM51.5942 2.39773C51.5023 2.39773 51.4278 2.47362 51.4278 2.56724V6.21188C51.4278 6.3055 51.5023 6.3814 51.5942 6.3814H56.6694C56.7613 6.3814 56.8358 6.3055 56.8358 6.21188V2.56724C56.8358 2.47362 56.7613 2.39773 56.6694 2.39773H51.5942Z" fill="#0193C6"/>
</svg>
